#N canvas 138 141 995 925 12;
#X floatatom 296 40 5 0 0 0 - - - 0;
#X obj 243 96 bng 15 250 50 0 empty empty empty 17 7 0 10 #fcfcfc #000000 #000000;
#X obj 243 37 tgl 15 0 empty empty empty 17 7 0 10 #fcfcfc #000000 #000000 0 1;
#X obj 243 136 int 1;
#X floatatom 242 160 5 0 0 0 - - - 0;
#X obj 243 207 + 1;
#X floatatom 243 232 5 0 0 0 - - - 0;
#X obj 242 264 sel 1;
#X obj 243 290 bng 15 250 50 0 empty empty empty 17 7 0 10 #fcfcfc #000000 #000000;
#X obj 243 310 s One;
#X obj 294 291 bng 15 250 50 0 empty empty empty 17 7 0 10 #fcfcfc #000000 #000000;
#X obj 344 292 bng 15 250 50 0 empty empty empty 17 7 0 10 #fcfcfc #000000 #000000;
#X obj 405 292 bng 15 250 50 0 empty empty empty 17 7 0 10 #fcfcfc #000000 #000000;
#X obj 460 292 bng 15 250 50 0 empty empty empty 17 7 0 10 #fcfcfc #000000 #000000;
#X obj 513 292 bng 15 250 50 0 empty empty empty 17 7 0 10 #fcfcfc #000000 #000000;
#X obj 564 292 bng 15 250 50 0 empty empty empty 17 7 0 10 #fcfcfc #000000 #000000;
#X obj 627 292 bng 15 250 50 0 empty empty empty 17 7 0 10 #fcfcfc #000000 #000000;
#X obj 293 265 sel 2;
#X obj 343 266 sel 3;
#X obj 404 266 sel 4;
#X obj 459 266 sel 5;
#X obj 565 266 sel 7;
#X obj 513 266 sel 6;
#X obj 626 266 sel 8;
#X obj 188 66 sel 0;
#X obj 299 14 loadbang;
#X obj 119 64 loadbang;
#X obj 188 91 bng 15 250 50 0 empty empty empty 17 7 0 10 #fcfcfc #000000 #000000;
#X obj 188 110 - 1;
#X obj 294 311 s Two;
#X obj 344 312 s Three;
#X obj 405 312 s Four;
#X obj 460 312 s Five;
#X obj 513 311 s Six;
#X obj 566 312 s Seven;
#X obj 627 312 s Eight;
#X obj 381 156 + 1;
#X msg 701 33 \; pd dsp 1;
#X obj 361 788 dac~;
#X obj 361 757 *~ 0.75;
#X obj 89 571 readsf~, f 8;
#X obj 159 604 readsf~, f 8;
#X msg 89 543 open ../Audio/piano/piano_0.aif \, 1;
#X msg 159 573 open ../Audio/piano/piano_1.aif \, 1;
#X obj 234 633 readsf~, f 8;
#X obj 308 665 readsf~, f 8;
#X obj 456 571 readsf~, f 8;
#X obj 526 604 readsf~, f 8;
#X obj 601 633 readsf~, f 8;
#X obj 675 665 readsf~, f 8;
#X msg 234 602 open ../Audio/piano/piano_2.aif \, 1;
#X msg 308 634 open ../Audio/piano/piano_3.aif \, 1;
#X msg 456 543 open ../Audio/piano/piano_4.aif \, 1;
#X msg 526 573 open ../Audio/piano/piano_5.aif \, 1;
#X msg 601 602 open ../Audio/piano/piano_6.aif \, 1;
#X msg 675 634 open ../Audio/piano/piano_7.aif \, 1;
#X obj 243 67 metro 300;
#X obj 243 183 % 2, f 31;
#X floatatom 452 138 5 0 0 0 - - - 0;
#X obj 98 506 sel 0, f 6;
#X obj 310 340 loadbang;
#X obj 137 479 random 7;
#X obj 174 506 sel 0, f 6;
#X obj 213 479 random 7;
#X obj 251 507 sel 0, f 6;
#X obj 290 480 random 7;
#X obj 326 509 sel 0, f 6;
#X obj 365 482 random 7;
#X obj 452 506 sel 0, f 6;
#X obj 491 479 random 7;
#X obj 530 506 sel 0, f 6;
#X obj 569 479 random 7;
#X obj 603 506 sel 0, f 6;
#X obj 642 479 random 7;
#X obj 676 507 sel 0, f 6;
#X obj 715 480 random 7;
#X connect 0 0 56 1;
#X connect 1 0 3 0;
#X connect 2 0 24 0;
#X connect 2 0 56 0;
#X connect 3 0 4 0;
#X connect 3 0 36 0;
#X connect 4 0 57 0;
#X connect 5 0 6 0;
#X connect 6 0 7 0;
#X connect 6 0 17 0;
#X connect 6 0 18 0;
#X connect 6 0 19 0;
#X connect 6 0 20 0;
#X connect 6 0 22 0;
#X connect 6 0 21 0;
#X connect 6 0 23 0;
#X connect 6 0 59 0;
#X connect 6 0 62 0;
#X connect 6 0 64 0;
#X connect 6 0 66 0;
#X connect 6 0 68 0;
#X connect 6 0 70 0;
#X connect 6 0 72 0;
#X connect 6 0 74 0;
#X connect 7 0 8 0;
#X connect 8 0 9 0;
#X connect 10 0 29 0;
#X connect 11 0 30 0;
#X connect 12 0 31 0;
#X connect 13 0 32 0;
#X connect 14 0 33 0;
#X connect 15 0 34 0;
#X connect 16 0 35 0;
#X connect 17 0 10 0;
#X connect 18 0 11 0;
#X connect 19 0 12 0;
#X connect 20 0 13 0;
#X connect 21 0 15 0;
#X connect 22 0 14 0;
#X connect 23 0 16 0;
#X connect 24 0 27 0;
#X connect 25 0 0 0;
#X connect 26 0 27 0;
#X connect 27 0 28 0;
#X connect 28 0 3 0;
#X connect 36 0 3 1;
#X connect 39 0 38 0;
#X connect 39 0 38 1;
#X connect 40 0 39 0;
#X connect 41 0 39 0;
#X connect 42 0 40 0;
#X connect 43 0 41 0;
#X connect 44 0 39 0;
#X connect 45 0 39 0;
#X connect 46 0 39 0;
#X connect 47 0 39 0;
#X connect 48 0 39 0;
#X connect 49 0 39 0;
#X connect 50 0 44 0;
#X connect 51 0 45 0;
#X connect 52 0 46 0;
#X connect 53 0 47 0;
#X connect 54 0 48 0;
#X connect 55 0 49 0;
#X connect 56 0 1 0;
#X connect 57 0 5 0;
#X connect 58 0 57 1;
#X connect 59 0 42 0;
#X connect 60 0 61 0;
#X connect 60 0 63 0;
#X connect 60 0 65 0;
#X connect 60 0 67 0;
#X connect 60 0 69 0;
#X connect 60 0 71 0;
#X connect 60 0 73 0;
#X connect 60 0 75 0;
#X connect 61 0 59 1;
#X connect 62 0 43 0;
#X connect 63 0 62 1;
#X connect 64 0 50 0;
#X connect 65 0 64 1;
#X connect 66 0 51 0;
#X connect 67 0 66 1;
#X connect 68 0 52 0;
#X connect 69 0 68 1;
#X connect 70 0 53 0;
#X connect 71 0 70 1;
#X connect 72 0 54 0;
#X connect 73 0 72 1;
#X connect 74 0 55 0;
#X connect 75 0 74 1;
