#N canvas 467 126 1409 808 12;
#X floatatom 307 140 5 0 0 0 - - - 0;
#X obj 250 258 bng 15 250 50 0 empty empty empty 17 7 0 10 #fcfcfc #000000 #000000;
#X obj 250 199 tgl 15 0 empty empty empty 17 7 0 10 #fcfcfc #000000 #000000 0 1;
#X obj 250 298 int 1;
#X floatatom 249 322 5 0 0 0 - - - 0;
#X floatatom 250 371 5 0 0 0 - - - 0;
#X obj 195 228 sel 0;
#X obj 31 13 loadbang;
#X obj 195 253 bng 15 250 50 0 empty empty empty 17 7 0 10 #fcfcfc #000000 #000000;
#X obj 195 272 - 1;
#X obj 388 318 + 1;
#X obj 313 763 dac~;
#X obj 326 706 *~ 0.75;
#X floatatom 459 300 5 0 0 0 - - - 0;
#X obj 33 90 bng 19 250 50 0 empty empty empty 0 -10 0 12 #fcfcfc #000000 #000000;
#X obj 43 586 tabplay~ sample0;
#X obj 230 588 tabplay~ sample1;
#X obj 420 590 tabplay~ sample2;
#X obj 663 601 tabplay~ sample3;
#X obj 48 40 receive start;
#X obj 484 344 s beats;
#X obj 242 18 r tempo;
#X obj 455 240 loadbang;
#X obj 524 240 r length;
#N canvas 0 25 494 260 samples 0;
#N canvas 0 0 450 300 (subpatch) 0;
#X array sample0 294912 float 0;
#X coords 0 1 294911 -1 250 5 1 0 0;
#X restore 89 60 graph;
#N canvas 0 0 450 300 (subpatch) 0;
#X array sample1 294912 float 0;
#X coords 0 1 294911 -1 250 5 1 0 0;
#X restore 88 90 graph;
#N canvas 0 0 450 300 (subpatch) 0;
#X array sample2 294912 float 0;
#X coords 0 1 294911 -1 250 5 1 0 0;
#X restore 90 123 graph;
#N canvas 0 0 450 300 (subpatch) 0;
#X array sample3 294912 float 0;
#X coords 0 1 294911 -1 250 5 1 0 0;
#X restore 89 153 graph;
#X restore 623 155 pd samples;
#N canvas 0 22 450 278 (subpatch) 0;
#X array arpArray 4 float 2;
#X coords 0 0 4 4 250 200 1 0 0;
#X restore 1074 562 graph;
#X floatatom 250 421 5 0 0 0 - - - 0;
#X obj 625 179 r instrument;
#X floatatom 625 203 5 0 0 0 - - - 0;
#X obj 623 230 sel 0 1 2 3 4;
#X obj 372 53 r noteSpeed;
#X floatatom 369 141 5 0 0 0 - - - 0;
#X obj 369 164 t b f;
#X obj 250 229 metro 600;
#X floatatom 341 227 5 0 0 0 - - - 0;
#X obj 340 254 print tempo;
#X obj 243 43 t b f;
#X obj 258 103 /;
#X text 198 141 quarter notes;
#X msg 217 73 60000;
#X obj 521 267 r resetLine;
#X obj 539 297 bng 19 250 50 0 empty empty empty 0 -10 0 12 #fcfcfc #000000 #000000;
#X msg 203 17 60;
#X msg 456 271 4;
#X obj 40 548 sel 0 1 2 3, f 111;
#X obj 250 345 % 4, f 31;
#X obj 307 199 * 2, f 14;
#X obj 1114 280 tabwrite arpArray;
#X obj 250 396 tabread arpArray;
#X msg 919 568 \; arpArray resize 4 \; arpArray 0 0 1 2 3 \;;
#N canvas 196 25 1440 771 sampleLoader 0;
#X obj 60 225 soundfiler;
#X floatatom 60 251 0 0 0 0 - - - 0;
#X obj 141 254 soundfiler;
#X floatatom 141 280 0 0 0 0 - - - 0;
#X obj 225 285 soundfiler;
#X floatatom 224 315 0 0 0 0 - - - 0;
#X obj 313 318 soundfiler;
#X floatatom 313 344 0 0 0 0 - - - 0;
#X obj 500 63 bng 15 250 50 0 empty empty empty 17 7 0 10 #fcfcfc #000000 #000000;
#X obj 500 20 inlet;
#X msg 61 192 read -resize Audio/clarinet/_0.wav sample0;
#X msg 142 221 read -resize Audio/clarinet/_1.wav sample1;
#X msg 224 253 read -resize Audio/clarinet/_2.wav sample2;
#X msg 317 284 read -resize Audio/clarinet/_3.wav sample3;
#X connect 0 0 1 0;
#X connect 2 0 3 0;
#X connect 4 0 5 0;
#X connect 6 0 7 0;
#X connect 8 0 10 0;
#X connect 8 0 11 0;
#X connect 8 0 12 0;
#X connect 8 0 13 0;
#X connect 9 0 8 0;
#X connect 10 0 0 0;
#X connect 11 0 2 0;
#X connect 12 0 4 0;
#X connect 13 0 6 0;
#X restore 672 357 pd sampleLoader clarinet;
#X msg 386 116 4;
#X obj 919 527 loadbang;
#N canvas 586 184 1440 771 sampleLoader 0;
#X obj 60 225 soundfiler;
#X floatatom 60 251 0 0 0 0 - - - 0;
#X obj 141 254 soundfiler;
#X floatatom 141 280 0 0 0 0 - - - 0;
#X obj 225 285 soundfiler;
#X obj 500 63 bng 15 250 50 0 empty empty empty 17 7 0 10 #fcfcfc #000000 #000000;
#X obj 500 20 inlet;
#X obj 313 313 soundfiler;
#X msg 61 192 read -resize Audio/organ/_0.wav sample0;
#X msg 154 225 read -resize Audio/organ/_1.wav sample1;
#X msg 225 251 read -resize Audio/organ/_2.wav sample2;
#X msg 313 284 read -resize Audio/organ/_3.wav sample3;
#X connect 0 0 1 0;
#X connect 2 0 3 0;
#X connect 5 0 8 0;
#X connect 5 0 9 0;
#X connect 5 0 10 0;
#X connect 5 0 11 0;
#X connect 6 0 5 0;
#X connect 8 0 0 0;
#X connect 9 0 2 0;
#X connect 10 0 4 0;
#X connect 11 0 7 0;
#X restore 639 293 pd sampleLoader organ;
#N canvas 586 184 1440 771 sampleLoader 0;
#X obj 60 225 soundfiler;
#X floatatom 60 251 0 0 0 0 - - - 0;
#X obj 141 254 soundfiler;
#X floatatom 141 280 0 0 0 0 - - - 0;
#X obj 220 279 soundfiler;
#X obj 500 63 bng 15 250 50 0 empty empty empty 17 7 0 10 #fcfcfc #000000 #000000;
#X obj 500 20 inlet;
#X obj 314 313 soundfiler;
#X msg 61 192 read -resize Audio/flute/_0.wav sample0;
#X msg 153 221 read -resize Audio/flute/_1.wav sample1;
#X msg 223 252 read -resize Audio/flute/_2.wav sample2;
#X msg 314 283 read -resize Audio/flute/_3.wav sample3;
#X connect 0 0 1 0;
#X connect 2 0 3 0;
#X connect 5 0 8 0;
#X connect 5 0 9 0;
#X connect 5 0 10 0;
#X connect 5 0 11 0;
#X connect 6 0 5 0;
#X connect 8 0 0 0;
#X connect 9 0 2 0;
#X connect 10 0 4 0;
#X connect 11 0 7 0;
#X restore 656 326 pd sampleLoader flute;
#N canvas 586 184 1440 771 sampleLoader 0;
#X obj 60 225 soundfiler;
#X floatatom 60 251 0 0 0 0 - - - 0;
#X obj 141 254 soundfiler;
#X floatatom 141 280 0 0 0 0 - - - 0;
#X obj 220 279 soundfiler;
#X obj 500 63 bng 15 250 50 0 empty empty empty 17 7 0 10 #fcfcfc #000000 #000000;
#X obj 500 20 inlet;
#X obj 314 313 soundfiler;
#X msg 61 192 read -resize Audio/fluteSynth/_0.wav sample0;
#X msg 153 221 read -resize Audio/fluteSynth/_1.wav sample1;
#X msg 223 252 read -resize Audio/fluteSynth/_2.wav sample2;
#X msg 314 284 read -resize Audio/fluteSynth/_3.wav sample3;
#X connect 0 0 1 0;
#X connect 2 0 3 0;
#X connect 5 0 8 0;
#X connect 5 0 9 0;
#X connect 5 0 10 0;
#X connect 5 0 11 0;
#X connect 6 0 5 0;
#X connect 8 0 0 0;
#X connect 9 0 2 0;
#X connect 10 0 4 0;
#X connect 11 0 7 0;
#X restore 620 261 pd sampleLoader flute;
#N canvas 586 184 1440 771 sampleLoader 0;
#X obj 60 225 soundfiler;
#X floatatom 60 251 0 0 0 0 - - - 0;
#X obj 141 254 soundfiler;
#X floatatom 141 280 0 0 0 0 - - - 0;
#X obj 220 279 soundfiler;
#X obj 500 63 bng 15 250 50 0 empty empty empty 17 7 0 10 #fcfcfc #000000 #000000;
#X obj 500 20 inlet;
#X obj 314 313 soundfiler;
#X msg 61 192 read -resize Audio/mountainFlute/_0.wav sample0;
#X msg 153 221 read -resize Audio/mountainFlute/_1.wav sample1;
#X msg 222 251 read -resize Audio/mountainFlute/_2.wav sample2;
#X msg 312 283 read -resize Audio/mountainFlute/_3.wav sample3;
#X connect 0 0 1 0;
#X connect 2 0 3 0;
#X connect 5 0 8 0;
#X connect 5 0 9 0;
#X connect 5 0 10 0;
#X connect 5 0 11 0;
#X connect 6 0 5 0;
#X connect 8 0 0 0;
#X connect 9 0 2 0;
#X connect 10 0 4 0;
#X connect 11 0 7 0;
#X restore 699 390 pd sampleLoader flute;
#X obj 432 463 line;
#X msg 432 433 \$1 100000;
#X msg 433 401 0.75;
#X floatatom 432 487 5 0 0 0 - - - 0;
#X connect 0 0 46 0;
#X connect 1 0 3 0;
#X connect 2 0 6 0;
#X connect 2 0 33 0;
#X connect 3 0 4 0;
#X connect 3 0 10 0;
#X connect 4 0 45 0;
#X connect 5 0 48 0;
#X connect 6 0 8 0;
#X connect 7 0 14 0;
#X connect 8 0 9 0;
#X connect 9 0 3 0;
#X connect 10 0 3 1;
#X connect 12 0 11 0;
#X connect 12 0 11 1;
#X connect 13 0 20 0;
#X connect 13 0 45 1;
#X connect 14 0 59 0;
#X connect 14 0 42 0;
#X connect 14 0 51 0;
#X connect 14 0 8 0;
#X connect 15 0 12 0;
#X connect 16 0 12 0;
#X connect 17 0 12 0;
#X connect 18 0 12 0;
#X connect 19 0 14 0;
#X connect 19 0 2 0;
#X connect 21 0 36 0;
#X connect 22 0 43 0;
#X connect 22 0 28 0;
#X connect 23 0 13 0;
#X connect 26 0 44 0;
#X connect 27 0 28 0;
#X connect 28 0 29 0;
#X connect 29 0 55 0;
#X connect 29 1 53 0;
#X connect 29 2 54 0;
#X connect 29 3 50 0;
#X connect 29 4 56 0;
#X connect 30 0 31 0;
#X connect 31 0 32 0;
#X connect 32 0 46 0;
#X connect 32 1 46 1;
#X connect 33 0 1 0;
#X connect 34 0 35 0;
#X connect 36 0 39 0;
#X connect 36 1 37 1;
#X connect 37 0 0 0;
#X connect 39 0 37 0;
#X connect 40 0 13 0;
#X connect 40 0 41 0;
#X connect 42 0 36 0;
#X connect 43 0 13 0;
#X connect 44 0 15 0;
#X connect 44 1 16 0;
#X connect 44 2 17 0;
#X connect 44 3 18 0;
#X connect 45 0 5 0;
#X connect 46 0 33 1;
#X connect 46 0 34 0;
#X connect 48 0 26 0;
#X connect 51 0 31 0;
#X connect 52 0 49 0;
#X connect 57 0 60 0;
#X connect 58 0 57 0;
#X connect 59 0 58 0;
#X connect 60 0 12 1;
