#N canvas 672 332 850 666 12;
#X floatatom 192 184 5 0 0 0 - - - 0;
#X obj 139 240 bng 15 250 50 0 empty empty empty 17 7 0 10 #fcfcfc #000000 #000000;
#X obj 139 181 tgl 15 0 empty empty empty 17 7 0 10 #fcfcfc #000000 #000000 0 1;
#X obj 139 211 metro 600;
#X obj 24 206 receive start;
#X obj 324 396 soundfiler;
#X floatatom 324 422 0 0 0 0 - - - 0;
#X obj 324 334 loadbang;
#X obj 136 309 tabplay~ sample0;
#X msg 325 363 read -resize ../../Audio/piano/piano_0.aif sample0;
#N canvas 0 0 450 300 (subpatch) 0;
#X array sample0 88200 float 0;
#X coords 0 1 88199 -1 250 200 1 0 0;
#X restore 495 106 graph;
#X obj 143 106 loadbang;
#X obj 123 418 dac~;
#X msg 276 146 \; pd dsp 1;
#X floatatom 181 349 5 0 0 0 - - - 0;
#X obj 127 375 *~ 0.75;
#X connect 0 0 3 1;
#X connect 1 0 8 0;
#X connect 2 0 3 0;
#X connect 3 0 1 0;
#X connect 4 0 1 0;
#X connect 5 0 6 0;
#X connect 7 0 9 0;
#X connect 8 0 15 0;
#X connect 9 0 5 0;
#X connect 11 0 2 0;
#X connect 14 0 15 1;
#X connect 15 0 12 0;
#X connect 15 0 12 1;
