#N canvas 182 107 1185 742 12;
#X floatatom 308 32 5 0 0 0 - - -;
#X obj 243 96 bng 15 250 50 0 empty empty empty 17 7 0 10 -262144 -1
-1;
#X obj 243 37 tgl 15 0 empty empty empty 17 7 0 10 -262144 -1 -1 0
1;
#X obj 243 136 int 1;
#X floatatom 242 160 5 0 0 0 - - -;
#X floatatom 243 209 5 0 0 0 - - -;
#X obj 188 66 sel 0;
#X obj 25 11 loadbang;
#X obj 188 91 bng 15 250 50 0 empty empty empty 17 7 0 10 -262144 -1
-1;
#X obj 188 110 - 1;
#X obj 381 156 + 1;
#X obj 298 574 dac~;
#X obj 311 517 *~ 0.75;
#X obj 243 67 metro 300;
#X floatatom 452 138 5 0 0 0 - - -;
#X obj 21 249 bng 19 250 50 0 empty empty empty 0 -10 0 12 -262144
-1 -1;
#X obj 93 337 tabplay~ sample0;
#X obj 161 363 tabplay~ sample1;
#X obj 233 390 tabplay~ sample2;
#X obj 303 338 tabplay~ sample3;
#X obj 373 367 tabplay~ sample4;
#X obj 447 397 tabplay~ sample5;
#X obj 512 344 tabplay~ sample6;
#X obj 583 374 tabplay~ sample7;
#X obj 654 402 tabplay~ sample8;
#X obj 727 432 tabplay~ sample9;
#X obj 43 213 receive start;
#X obj 479 183 s beats;
#X obj 308 5 r tempo;
#X obj 243 183 % 32, f 31;
#X obj 448 78 loadbang;
#X msg 449 109 32;
#X obj 517 78 r length;
#N canvas 0 25 1440 771 sampleLoader 0;
#X obj 60 225 soundfiler;
#X floatatom 60 251 0 0 0 0 - - -;
#X msg 61 192 read -resize ../../Audio/piano/piano_0.aif sample0;
#X obj 141 254 soundfiler;
#X floatatom 141 280 0 0 0 0 - - -;
#X obj 225 285 soundfiler;
#X floatatom 224 315 0 0 0 0 - - -;
#X obj 313 318 soundfiler;
#X floatatom 313 344 0 0 0 0 - - -;
#X obj 399 355 soundfiler;
#X floatatom 399 381 0 0 0 0 - - -;
#X obj 492 388 soundfiler;
#X floatatom 492 414 0 0 0 0 - - -;
#X obj 573 417 soundfiler;
#X floatatom 573 443 0 0 0 0 - - -;
#X obj 657 448 soundfiler;
#X floatatom 657 474 0 0 0 0 - - -;
#X obj 745 481 soundfiler;
#X floatatom 745 507 0 0 0 0 - - -;
#X obj 831 518 soundfiler;
#X floatatom 831 544 0 0 0 0 - - -;
#X msg 142 221 read -resize ../../Audio/piano/piano_1.aif sample1;
#X msg 224 252 read -resize ../../Audio/piano/piano_2.aif sample2;
#X msg 314 285 read -resize ../../Audio/piano/piano_3.aif sample3;
#X msg 400 322 read -resize ../../Audio/piano/piano_4.aif sample4;
#X msg 493 355 read -resize ../../Audio/piano/piano_5.aif sample5;
#X msg 574 384 read -resize ../../Audio/piano/piano_root.aif sample6
;
#X msg 657 415 read -resize ../../Audio/piano/piano_third.aif sample7
;
#X msg 746 448 read -resize ../../Audio/piano/piano_fourth.aif sample8
;
#X msg 835 486 read -resize ../../Audio/piano/piano_fifth.aif sample9
;
#X obj 500 63 bng 15 250 50 0 empty empty empty 17 7 0 10 -262144 -1
-1;
#X obj 500 20 inlet;
#X connect 0 0 1 0;
#X connect 2 0 0 0;
#X connect 3 0 4 0;
#X connect 5 0 6 0;
#X connect 7 0 8 0;
#X connect 9 0 10 0;
#X connect 11 0 12 0;
#X connect 13 0 14 0;
#X connect 15 0 16 0;
#X connect 17 0 18 0;
#X connect 19 0 20 0;
#X connect 21 0 3 0;
#X connect 22 0 5 0;
#X connect 23 0 7 0;
#X connect 24 0 9 0;
#X connect 25 0 11 0;
#X connect 26 0 13 0;
#X connect 27 0 15 0;
#X connect 28 0 17 0;
#X connect 29 0 19 0;
#X connect 30 0 2 0;
#X connect 30 0 21 0;
#X connect 30 0 22 0;
#X connect 30 0 23 0;
#X connect 30 0 24 0;
#X connect 30 0 25 0;
#X connect 30 0 26 0;
#X connect 30 0 27 0;
#X connect 30 0 28 0;
#X connect 30 0 29 0;
#X connect 31 0 30 0;
#X restore 610 65 pd sampleLoader;
#N canvas 0 25 504 455 samples 0;
#N canvas 0 0 450 300 (subpatch) 0;
#X array sample0 88200 float 0;
#X coords 0 1 88199 -1 250 5 1 0 0;
#X restore 89 60 graph;
#N canvas 0 0 450 300 (subpatch) 0;
#X array sample1 88200 float 0;
#X coords 0 1 88199 -1 250 5 1 0 0;
#X restore 88 90 graph;
#N canvas 0 0 450 300 (subpatch) 0;
#X array sample2 88200 float 0;
#X coords 0 1 88199 -1 250 5 1 0 0;
#X restore 90 123 graph;
#N canvas 0 0 450 300 (subpatch) 0;
#X array sample3 88200 float 0;
#X coords 0 1 88199 -1 250 5 1 0 0;
#X restore 89 153 graph;
#N canvas 0 0 450 300 (subpatch) 0;
#X array sample4 88200 float 0;
#X coords 0 1 88199 -1 250 5 1 0 0;
#X restore 89 184 graph;
#N canvas 0 0 450 300 (subpatch) 0;
#X array sample5 88200 float 0;
#X coords 0 1 88199 -1 250 5 1 0 0;
#X restore 88 214 graph;
#N canvas 0 0 450 300 (subpatch) 0;
#X array sample6 176400 float 0;
#X coords 0 1 176399 -1 250 5 1 0 0;
#X restore 90 247 graph;
#N canvas 0 0 450 300 (subpatch) 0;
#X array sample7 176400 float 0;
#X coords 0 1 176399 -1 250 5 1 0 0;
#X restore 89 277 graph;
#N canvas 0 0 450 300 (subpatch) 0;
#X array sample9 176400 float 0;
#X coords 0 1 176399 -1 250 5 1 0 0;
#X restore 99 347 graph;
#N canvas 0 0 450 300 (subpatch) 0;
#X array sample8 176400 float 0;
#X coords 0 1 176399 -1 250 5 1 0 0;
#X restore 96 307 graph;
#X restore 645 94 pd samples;
#X obj 606 31 bng 15 250 50 0 empty empty empty 17 7 0 10 -262144 -1
-1;
#N canvas 47 25 1311 771 sampleLoader 0;
#X obj 60 225 soundfiler;
#X floatatom 60 251 0 0 0 0 - - -;
#X obj 141 254 soundfiler;
#X floatatom 141 280 0 0 0 0 - - -;
#X obj 225 285 soundfiler;
#X floatatom 224 315 0 0 0 0 - - -;
#X obj 313 318 soundfiler;
#X floatatom 313 344 0 0 0 0 - - -;
#X obj 399 355 soundfiler;
#X floatatom 399 381 0 0 0 0 - - -;
#X obj 492 388 soundfiler;
#X floatatom 492 414 0 0 0 0 - - -;
#X obj 573 417 soundfiler;
#X floatatom 573 443 0 0 0 0 - - -;
#X obj 657 448 soundfiler;
#X floatatom 657 474 0 0 0 0 - - -;
#X obj 745 481 soundfiler;
#X floatatom 745 507 0 0 0 0 - - -;
#X obj 831 518 soundfiler;
#X floatatom 831 544 0 0 0 0 - - -;
#X obj 500 63 bng 15 250 50 0 empty empty empty 17 7 0 10 -262144 -1
-1;
#X obj 500 20 inlet;
#X msg 61 192 read -resize ../../Audio/vibes/vibe_0.wav sample0;
#X msg 141 221 read -resize ../../Audio/vibes/vibe_1.wav sample1;
#X msg 224 252 read -resize ../../Audio/vibes/vibe_2.wav sample2;
#X msg 314 285 read -resize ../../Audio/vibes/vibe_3.wav sample3;
#X msg 400 322 read -resize ../../Audio/vibes/vibe_4.wav sample4;
#X msg 493 355 read -resize ../../Audio/vibes/vibe_5.wav sample5;
#X msg 574 384 read -resize ../../Audio/vibes/vibe_root.wav sample6
;
#X msg 657 415 read -resize ../../Audio/vibes/vibe_third.wav sample7
;
#X msg 746 448 read -resize ../../Audio/vibes/vibe_fourth.wav sample8
;
#X msg 835 486 read -resize ../../Audio/vibes/vibe_fifth.wav sample9
;
#X connect 0 0 1 0;
#X connect 2 0 3 0;
#X connect 4 0 5 0;
#X connect 6 0 7 0;
#X connect 8 0 9 0;
#X connect 10 0 11 0;
#X connect 12 0 13 0;
#X connect 14 0 15 0;
#X connect 16 0 17 0;
#X connect 18 0 19 0;
#X connect 20 0 22 0;
#X connect 20 0 23 0;
#X connect 20 0 24 0;
#X connect 20 0 25 0;
#X connect 20 0 26 0;
#X connect 20 0 27 0;
#X connect 20 0 28 0;
#X connect 20 0 29 0;
#X connect 20 0 30 0;
#X connect 20 0 31 0;
#X connect 21 0 20 0;
#X connect 22 0 0 0;
#X connect 23 0 2 0;
#X connect 24 0 4 0;
#X connect 25 0 6 0;
#X connect 26 0 8 0;
#X connect 27 0 10 0;
#X connect 28 0 12 0;
#X connect 29 0 14 0;
#X connect 30 0 16 0;
#X connect 31 0 18 0;
#X restore 728 64 pd sampleLoader;
#X obj 724 30 bng 15 250 50 0 empty empty empty 17 7 0 10 -262144 -1
-1;
#X text 632 29 piano;
#X text 748 30 vibes;
#X obj 1019 217 tabwrite noteArray;
#N canvas 0 22 450 278 (subpatch) 0;
#X array noteArray 6 float 2;
#X coords 0 10 6 0 250 200 1;
#X restore 905 336 graph;
#X obj 1019 23 r beats;
#X obj 1019 83 line 0 100;
#X obj 1019 112 t b \$1, f 18;
#X floatatom 1141 140 5 0 0 0 - - -;
#X floatatom 1019 160 5 0 0 0 - - -;
#X msg 861 51 \; noteArray resize \$1 \;;
#X obj 243 235 tabread noteArray;
#X floatatom 243 259 5 0 0 0 - - -;
#X obj 1019 136 random 10;
#X obj 22 302 sel 0 1 2 3 4 5 6 7 8 9 10, f 111;
#X obj 1019 188 change;
#X msg 1019 53 0 \, \$1 1000 1;
#X connect 0 0 13 1;
#X connect 1 0 3 0;
#X connect 2 0 6 0;
#X connect 2 0 13 0;
#X connect 3 0 4 0;
#X connect 3 0 10 0;
#X connect 4 0 29 0;
#X connect 5 0 48 0;
#X connect 6 0 8 0;
#X connect 7 0 8 0;
#X connect 7 0 2 0;
#X connect 7 0 15 0;
#X connect 8 0 9 0;
#X connect 9 0 3 0;
#X connect 10 0 3 1;
#X connect 12 0 11 0;
#X connect 12 0 11 1;
#X connect 13 0 1 0;
#X connect 14 0 27 0;
#X connect 14 0 29 1;
#X connect 16 0 12 0;
#X connect 17 0 12 0;
#X connect 18 0 12 0;
#X connect 19 0 12 0;
#X connect 20 0 12 0;
#X connect 21 0 12 0;
#X connect 22 0 12 0;
#X connect 23 0 12 0;
#X connect 24 0 12 0;
#X connect 25 0 12 0;
#X connect 26 0 15 0;
#X connect 28 0 0 0;
#X connect 29 0 5 0;
#X connect 30 0 31 0;
#X connect 31 0 14 0;
#X connect 32 0 14 0;
#X connect 35 0 33 0;
#X connect 37 0 36 0;
#X connect 42 0 53 0;
#X connect 42 0 47 0;
#X connect 43 0 44 0;
#X connect 44 0 50 0;
#X connect 44 1 45 0;
#X connect 45 0 40 1;
#X connect 46 0 52 0;
#X connect 48 0 49 0;
#X connect 49 0 51 0;
#X connect 50 0 46 0;
#X connect 51 1 16 0;
#X connect 51 2 17 0;
#X connect 51 3 18 0;
#X connect 51 4 19 0;
#X connect 51 5 20 0;
#X connect 51 6 21 0;
#X connect 51 7 22 0;
#X connect 51 8 23 0;
#X connect 51 9 24 0;
#X connect 51 10 25 0;
#X connect 52 0 40 0;
#X connect 53 0 43 0;
