#N canvas 441 97 1350 972 12;
#X floatatom 308 32 5 0 0 0 - - - 0;
#X obj 243 96 bng 15 250 50 0 empty empty empty 17 7 0 10 #fcfcfc #000000 #000000;
#X obj 243 37 tgl 15 0 empty empty empty 17 7 0 10 #fcfcfc #000000 #000000 0 1;
#X obj 243 136 int 1;
#X floatatom 242 160 5 0 0 0 - - - 0;
#X obj 243 207 + 1;
#X floatatom 243 232 5 0 0 0 - - - 0;
#X obj 242 264 sel 1;
#X obj 243 290 bng 15 250 50 0 empty empty empty 17 7 0 10 #fcfcfc #000000 #000000;
#X obj 243 310 s One;
#X obj 294 291 bng 15 250 50 0 empty empty empty 17 7 0 10 #fcfcfc #000000 #000000;
#X obj 344 292 bng 15 250 50 0 empty empty empty 17 7 0 10 #fcfcfc #000000 #000000;
#X obj 405 292 bng 15 250 50 0 empty empty empty 17 7 0 10 #fcfcfc #000000 #000000;
#X obj 460 292 bng 15 250 50 0 empty empty empty 17 7 0 10 #fcfcfc #000000 #000000;
#X obj 513 292 bng 15 250 50 0 empty empty empty 17 7 0 10 #fcfcfc #000000 #000000;
#X obj 564 292 bng 15 250 50 0 empty empty empty 17 7 0 10 #fcfcfc #000000 #000000;
#X obj 627 292 bng 15 250 50 0 empty empty empty 17 7 0 10 #fcfcfc #000000 #000000;
#X obj 293 265 sel 2;
#X obj 343 266 sel 3;
#X obj 404 266 sel 4;
#X obj 459 266 sel 5;
#X obj 565 266 sel 7;
#X obj 513 266 sel 6;
#X obj 626 266 sel 8;
#X obj 188 66 sel 0;
#X obj 25 11 loadbang;
#X obj 188 91 bng 15 250 50 0 empty empty empty 17 7 0 10 #fcfcfc #000000 #000000;
#X obj 188 110 - 1;
#X obj 294 311 s Two;
#X obj 344 312 s Three;
#X obj 405 312 s Four;
#X obj 460 312 s Five;
#X obj 513 311 s Six;
#X obj 566 312 s Seven;
#X obj 627 312 s Eight;
#X obj 381 156 + 1;
#X obj 361 788 dac~;
#X obj 361 757 *~ 0.75;
#X obj 243 67 metro 300;
#X floatatom 452 138 5 0 0 0 - - - 0;
#X obj 100 552 sel 0, f 6;
#X obj 137 479 random 7;
#X obj 176 552 sel 0, f 6;
#X obj 213 479 random 7;
#X obj 253 553 sel 0, f 6;
#X obj 290 480 random 7;
#X obj 328 555 sel 0, f 6;
#X obj 365 482 random 7;
#X obj 454 552 sel 0, f 6;
#X obj 491 479 random 7;
#X obj 532 552 sel 0, f 6;
#X obj 569 479 random 7;
#X obj 605 552 sel 0, f 6;
#X obj 642 479 random 7;
#X obj 678 553 sel 0, f 6;
#X obj 715 480 random 7;
#X obj 753 552 sel 0, f 6;
#X obj 790 479 random 7;
#X obj 826 553 sel 0, f 6;
#X obj 863 480 random 7;
#X obj 23 375 bng 19 250 50 0 empty empty empty 0 -10 0 12 #fcfcfc #000000 #000000;
#X obj 97 625 tabplay~ sample0;
#X obj 167 658 tabplay~ sample1;
#X obj 245 690 tabplay~ sample2;
#X obj 327 721 tabplay~ sample3;
#X obj 455 626 tabplay~ sample4;
#X obj 525 659 tabplay~ sample5;
#X obj 603 691 tabplay~ sample6;
#X obj 685 722 tabplay~ sample7;
#X obj 754 629 tabplay~ sample8;
#X obj 836 660 tabplay~ sample9;
#N canvas 339 164 1767 771 sampleLoader 0;
#X obj 280 339 soundfiler;
#X floatatom 280 365 0 0 0 0 - - - 0;
#X msg 281 306 read -resize ../../Audio/piano/piano_0.aif sample0;
#X obj 361 368 soundfiler;
#X floatatom 361 394 0 0 0 0 - - - 0;
#X obj 445 399 soundfiler;
#X floatatom 444 429 0 0 0 0 - - - 0;
#X obj 533 432 soundfiler;
#X floatatom 533 458 0 0 0 0 - - - 0;
#X obj 619 469 soundfiler;
#X floatatom 619 495 0 0 0 0 - - - 0;
#X obj 712 502 soundfiler;
#X floatatom 712 528 0 0 0 0 - - - 0;
#X obj 793 531 soundfiler;
#X floatatom 793 557 0 0 0 0 - - - 0;
#X obj 877 562 soundfiler;
#X floatatom 877 588 0 0 0 0 - - - 0;
#X obj 965 595 soundfiler;
#X floatatom 965 621 0 0 0 0 - - - 0;
#X obj 1051 632 soundfiler;
#X floatatom 1051 658 0 0 0 0 - - - 0;
#N canvas 0 0 450 300 (subpatch) 0;
#X array sample0 88200 float 0;
#X coords 0 1 88199 -1 250 5 1 0 0;
#X restore 1025 65 graph;
#N canvas 0 0 450 300 (subpatch) 0;
#X array sample1 88200 float 0;
#X coords 0 1 88199 -1 250 5 1 0 0;
#X restore 1024 95 graph;
#N canvas 0 0 450 300 (subpatch) 0;
#X array sample2 88200 float 0;
#X coords 0 1 88199 -1 250 5 1 0 0;
#X restore 1026 128 graph;
#N canvas 0 0 450 300 (subpatch) 0;
#X array sample3 88200 float 0;
#X coords 0 1 88199 -1 250 5 1 0 0;
#X restore 1025 158 graph;
#N canvas 0 0 450 300 (subpatch) 0;
#X array sample4 88200 float 0;
#X coords 0 1 88199 -1 250 5 1 0 0;
#X restore 1025 189 graph;
#N canvas 0 0 450 300 (subpatch) 0;
#X array sample5 88200 float 0;
#X coords 0 1 88199 -1 250 5 1 0 0;
#X restore 1024 219 graph;
#N canvas 0 0 450 300 (subpatch) 0;
#X array sample6 176400 float 0;
#X coords 0 1 176399 -1 250 5 1 0 0;
#X restore 1026 252 graph;
#N canvas 0 0 450 300 (subpatch) 0;
#X array sample7 176400 float 0;
#X coords 0 1 176399 -1 250 5 1 0 0;
#X restore 1025 282 graph;
#N canvas 0 0 450 300 (subpatch) 0;
#X array sample9 176400 float 0;
#X coords 0 1 176399 -1 250 5 1 0 0;
#X restore 1035 352 graph;
#N canvas 0 0 450 300 (subpatch) 0;
#X array sample8 176400 float 0;
#X coords 0 1 176399 -1 250 5 1 0 0;
#X restore 1032 312 graph;
#X obj 674 165 loadbang;
#X msg 362 335 read -resize ../../Audio/piano/piano_1.aif sample1;
#X msg 444 366 read -resize ../../Audio/piano/piano_2.aif sample2;
#X msg 534 399 read -resize ../../Audio/piano/piano_3.aif sample3;
#X msg 620 436 read -resize ../../Audio/piano/piano_4.aif sample4;
#X msg 713 469 read -resize ../../Audio/piano/piano_5.aif sample5;
#X msg 794 498 read -resize ../../Audio/piano/piano_root.aif sample6;
#X msg 877 529 read -resize ../../Audio/piano/piano_third.aif sample7;
#X msg 966 562 read -resize ../../Audio/piano/piano_fourth.aif sample8;
#X msg 1055 600 read -resize ../../Audio/piano/piano_fifth.aif sample9;
#X connect 0 0 1 0;
#X connect 2 0 0 0;
#X connect 3 0 4 0;
#X connect 5 0 6 0;
#X connect 7 0 8 0;
#X connect 9 0 10 0;
#X connect 11 0 12 0;
#X connect 13 0 14 0;
#X connect 15 0 16 0;
#X connect 17 0 18 0;
#X connect 19 0 20 0;
#X connect 31 0 2 0;
#X connect 31 0 32 0;
#X connect 31 0 33 0;
#X connect 31 0 34 0;
#X connect 31 0 35 0;
#X connect 31 0 36 0;
#X connect 31 0 37 0;
#X connect 31 0 38 0;
#X connect 31 0 39 0;
#X connect 31 0 40 0;
#X connect 32 0 3 0;
#X connect 33 0 5 0;
#X connect 34 0 7 0;
#X connect 35 0 9 0;
#X connect 36 0 11 0;
#X connect 37 0 13 0;
#X connect 38 0 15 0;
#X connect 39 0 17 0;
#X connect 40 0 19 0;
#X restore 805 52 pd sampleLoader;
#X obj 88 339 receive start;
#X obj 479 183 s beats;
#X obj 228 408 r beats;
#X obj 308 5 r tempo;
#X obj 243 183 % 32, f 31;
#X obj 448 78 loadbang;
#X msg 449 109 32;
#X obj 517 78 r length;
#X floatatom 137 503 5 0 0 0 - - - 0;
#X floatatom 213 503 5 0 0 0 - - - 0;
#X floatatom 290 504 5 0 0 0 - - - 0;
#X floatatom 365 506 5 0 0 0 - - - 0;
#X floatatom 491 503 5 0 0 0 - - - 0;
#X floatatom 569 503 5 0 0 0 - - - 0;
#X floatatom 642 503 5 0 0 0 - - - 0;
#X floatatom 715 504 5 0 0 0 - - - 0;
#X floatatom 790 503 5 0 0 0 - - - 0;
#X floatatom 863 504 5 0 0 0 - - - 0;
#X connect 0 0 38 1;
#X connect 1 0 3 0;
#X connect 2 0 24 0;
#X connect 2 0 38 0;
#X connect 3 0 4 0;
#X connect 3 0 35 0;
#X connect 4 0 76 0;
#X connect 5 0 6 0;
#X connect 6 0 7 0;
#X connect 6 0 17 0;
#X connect 6 0 18 0;
#X connect 6 0 19 0;
#X connect 6 0 20 0;
#X connect 6 0 22 0;
#X connect 6 0 21 0;
#X connect 6 0 23 0;
#X connect 6 0 40 0;
#X connect 6 0 42 0;
#X connect 6 0 44 0;
#X connect 6 0 46 0;
#X connect 6 0 48 0;
#X connect 6 0 50 0;
#X connect 6 0 54 0;
#X connect 6 0 56 0;
#X connect 6 0 58 0;
#X connect 6 0 52 0;
#X connect 7 0 8 0;
#X connect 8 0 9 0;
#X connect 10 0 28 0;
#X connect 11 0 29 0;
#X connect 12 0 30 0;
#X connect 13 0 31 0;
#X connect 14 0 32 0;
#X connect 15 0 33 0;
#X connect 16 0 34 0;
#X connect 17 0 10 0;
#X connect 18 0 11 0;
#X connect 19 0 12 0;
#X connect 20 0 13 0;
#X connect 21 0 15 0;
#X connect 22 0 14 0;
#X connect 23 0 16 0;
#X connect 24 0 26 0;
#X connect 25 0 26 0;
#X connect 25 0 2 0;
#X connect 25 0 60 0;
#X connect 26 0 27 0;
#X connect 27 0 3 0;
#X connect 35 0 3 1;
#X connect 37 0 36 0;
#X connect 37 0 36 1;
#X connect 38 0 1 0;
#X connect 39 0 73 0;
#X connect 39 0 76 1;
#X connect 40 0 61 0;
#X connect 41 0 80 0;
#X connect 42 0 62 0;
#X connect 43 0 81 0;
#X connect 44 0 63 0;
#X connect 45 0 82 0;
#X connect 46 0 64 0;
#X connect 47 0 83 0;
#X connect 48 0 65 0;
#X connect 49 0 84 0;
#X connect 50 0 66 0;
#X connect 51 0 85 0;
#X connect 52 0 67 0;
#X connect 53 0 86 0;
#X connect 54 0 68 0;
#X connect 55 0 87 0;
#X connect 56 0 69 0;
#X connect 57 0 88 0;
#X connect 58 0 70 0;
#X connect 59 0 89 0;
#X connect 60 0 59 0;
#X connect 60 0 57 0;
#X connect 60 0 55 0;
#X connect 60 0 41 0;
#X connect 60 0 43 0;
#X connect 60 0 45 0;
#X connect 60 0 47 0;
#X connect 60 0 49 0;
#X connect 60 0 51 0;
#X connect 60 0 53 0;
#X connect 61 0 37 0;
#X connect 62 0 37 0;
#X connect 63 0 37 0;
#X connect 64 0 37 0;
#X connect 65 0 37 0;
#X connect 66 0 37 0;
#X connect 67 0 37 0;
#X connect 68 0 37 0;
#X connect 69 0 37 0;
#X connect 70 0 37 0;
#X connect 72 0 60 0;
#X connect 74 0 41 1;
#X connect 74 0 43 1;
#X connect 74 0 45 1;
#X connect 74 0 47 1;
#X connect 74 0 49 1;
#X connect 74 0 51 1;
#X connect 74 0 53 1;
#X connect 74 0 55 1;
#X connect 74 0 57 1;
#X connect 74 0 59 1;
#X connect 75 0 0 0;
#X connect 76 0 5 0;
#X connect 77 0 78 0;
#X connect 78 0 39 0;
#X connect 79 0 39 0;
#X connect 80 0 40 1;
#X connect 81 0 42 1;
#X connect 82 0 44 1;
#X connect 83 0 46 1;
#X connect 84 0 48 1;
#X connect 85 0 50 1;
#X connect 86 0 52 1;
#X connect 87 0 54 1;
#X connect 88 0 56 1;
#X connect 89 0 58 1;
