#N canvas 579 162 1440 774 12;
#X floatatom 307 140 5 0 0 0 - - - 0;
#X obj 250 258 bng 15 250 50 0 empty empty empty 17 7 0 10 #fcfcfc #000000 #000000;
#X obj 250 199 tgl 15 0 empty empty empty 17 7 0 10 #fcfcfc #000000 #000000 0 1;
#X obj 250 298 int 1;
#X floatatom 249 322 5 0 0 0 - - - 0;
#X floatatom 250 371 5 0 0 0 - - - 0;
#X obj 195 228 sel 0;
#X obj 28 89 loadbang;
#X obj 195 253 bng 15 250 50 0 empty empty empty 17 7 0 10 #fcfcfc #000000 #000000;
#X obj 195 272 - 1;
#X obj 388 318 + 1;
#X obj 313 763 dac~;
#X obj 326 706 *~ 0.75;
#X floatatom 459 300 5 0 0 0 - - - 0;
#X obj 37 151 bng 19 250 50 0 empty empty empty 0 -10 0 12 #fcfcfc #000000 #000000;
#X obj 110 588 tabplay~ sample0;
#X obj 178 614 tabplay~ sample1;
#X obj 250 641 tabplay~ sample2;
#X obj 320 589 tabplay~ sample3;
#X obj 390 618 tabplay~ sample4;
#X obj 464 648 tabplay~ sample5;
#X obj 529 595 tabplay~ sample6;
#X obj 600 625 tabplay~ sample7;
#X obj 671 653 tabplay~ sample8;
#X obj 744 683 tabplay~ sample9;
#X obj 42 114 receive start;
#X obj 484 344 s beats;
#X obj 242 18 r tempo;
#X obj 250 345 % 32, f 31;
#X obj 455 240 loadbang;
#X msg 456 271 32;
#X obj 524 240 r length;
#N canvas 0 25 504 455 samples 0;
#N canvas 0 0 450 300 (subpatch) 0;
#X array sample0 98304 float 0;
#X coords 0 1 98303 -1 250 5 1 0 0;
#X restore 89 60 graph;
#N canvas 0 0 450 300 (subpatch) 0;
#X array sample1 98304 float 0;
#X coords 0 1 98303 -1 250 5 1 0 0;
#X restore 88 90 graph;
#N canvas 0 0 450 300 (subpatch) 0;
#X array sample2 98304 float 0;
#X coords 0 1 98303 -1 250 5 1 0 0;
#X restore 90 123 graph;
#N canvas 0 0 450 300 (subpatch) 0;
#X array sample3 98304 float 0;
#X coords 0 1 98303 -1 250 5 1 0 0;
#X restore 89 153 graph;
#N canvas 0 0 450 300 (subpatch) 0;
#X array sample4 98304 float 0;
#X coords 0 1 98303 -1 250 5 1 0 0;
#X restore 89 184 graph;
#N canvas 0 25 450 300 (subpatch) 0;
#X array sample5 98304 float 0;
#X coords 0 1 98303 -1 250 5 1 0 0;
#X restore 88 214 graph;
#N canvas 0 0 450 300 (subpatch) 0;
#X array sample6 98304 float 0;
#X coords 0 1 98303 -1 250 5 1 0 0;
#X restore 90 247 graph;
#N canvas 0 0 450 300 (subpatch) 0;
#X array sample7 98304 float 0;
#X coords 0 1 98303 -1 250 5 1 0 0;
#X restore 89 277 graph;
#N canvas 0 0 450 300 (subpatch) 0;
#X array sample9 98304 float 0;
#X coords 0 1 98303 -1 250 5 1 0 0;
#X restore 99 347 graph;
#N canvas 0 0 450 300 (subpatch) 0;
#X array sample8 98304 float 0;
#X coords 0 1 98303 -1 250 5 1 0 0;
#X restore 96 307 graph;
#X restore 623 155 pd samples;
#X obj 1139 531 tabwrite noteArray;
#N canvas 0 22 450 278 (subpatch) 0;
#X array noteArray 32 float 2;
#X coords 0 10 32 0 250 200 1;
#X restore 1073 614 graph;
#X obj 1177 195 r beats;
#X floatatom 1140 474 5 0 0 0 - - - 0;
#X msg 1019 223 \; noteArray resize \$1 \;;
#X obj 250 396 tabread noteArray;
#X floatatom 250 421 5 0 0 0 - - - 0;
#X obj 1140 450 random 10;
#X obj 39 553 sel 0 1 2 3 4 5 6 7 8 9 10, f 111;
#X obj 1140 502 change;
#X floatatom 1188 423 5 0 0 0 - - - 0;
#X obj 1177 276 tgl 19 0 empty empty empty 0 -10 0 12 #fcfcfc #000000 #000000 0 1;
#X obj 1260 352 int 1;
#X floatatom 1259 376 5 0 0 0 - - - 0;
#X obj 1354 356 + 1;
#X obj 1106 306 metro 150;
#X obj 1314 391 t b f;
#X obj 1299 502 tgl 19 0 empty empty empty 0 -10 0 12 #fcfcfc #000000 #000000 0 1;
#X obj 1346 424 - 1;
#X obj 1176 224 t b b \$1, f 18;
#X floatatom 1259 325 5 0 0 0 - - - 0;
#X obj 1142 334 spigot;
#X obj 1105 269 tgl 19 0 empty empty empty 0 -10 0 12 #fcfcfc #000000 #000000 0 1;
#X obj 1299 471 < 16;
#N canvas 0 25 1440 771 sampleLoader 0;
#X obj 60 225 soundfiler;
#X floatatom 60 251 0 0 0 0 - - - 0;
#X msg 61 192 read -resize ../../Audio/piano/piano_0.aif sample0;
#X obj 141 254 soundfiler;
#X floatatom 141 280 0 0 0 0 - - - 0;
#X obj 225 285 soundfiler;
#X floatatom 224 315 0 0 0 0 - - - 0;
#X obj 313 318 soundfiler;
#X floatatom 313 344 0 0 0 0 - - - 0;
#X obj 399 355 soundfiler;
#X floatatom 399 381 0 0 0 0 - - - 0;
#X obj 492 388 soundfiler;
#X floatatom 492 414 0 0 0 0 - - - 0;
#X obj 573 417 soundfiler;
#X floatatom 573 443 0 0 0 0 - - - 0;
#X obj 657 448 soundfiler;
#X floatatom 657 474 0 0 0 0 - - - 0;
#X obj 745 481 soundfiler;
#X floatatom 745 507 0 0 0 0 - - - 0;
#X obj 831 518 soundfiler;
#X floatatom 831 544 0 0 0 0 - - - 0;
#X msg 142 221 read -resize ../../Audio/piano/piano_1.aif sample1;
#X msg 224 252 read -resize ../../Audio/piano/piano_2.aif sample2;
#X msg 314 285 read -resize ../../Audio/piano/piano_3.aif sample3;
#X msg 400 322 read -resize ../../Audio/piano/piano_4.aif sample4;
#X msg 493 355 read -resize ../../Audio/piano/piano_5.aif sample5;
#X msg 574 384 read -resize ../../Audio/piano/piano_root.aif sample6;
#X msg 657 415 read -resize ../../Audio/piano/piano_third.aif sample7;
#X msg 746 448 read -resize ../../Audio/piano/piano_fourth.aif sample8;
#X msg 835 486 read -resize ../../Audio/piano/piano_fifth.aif sample9;
#X obj 500 63 bng 15 250 50 0 empty empty empty 17 7 0 10 #fcfcfc #000000 #000000;
#X obj 500 20 inlet;
#X connect 0 0 1 0;
#X connect 2 0 0 0;
#X connect 3 0 4 0;
#X connect 5 0 6 0;
#X connect 7 0 8 0;
#X connect 9 0 10 0;
#X connect 11 0 12 0;
#X connect 13 0 14 0;
#X connect 15 0 16 0;
#X connect 17 0 18 0;
#X connect 19 0 20 0;
#X connect 21 0 3 0;
#X connect 22 0 5 0;
#X connect 23 0 7 0;
#X connect 24 0 9 0;
#X connect 25 0 11 0;
#X connect 26 0 13 0;
#X connect 27 0 15 0;
#X connect 28 0 17 0;
#X connect 29 0 19 0;
#X connect 30 0 2 0;
#X connect 30 0 21 0;
#X connect 30 0 22 0;
#X connect 30 0 23 0;
#X connect 30 0 24 0;
#X connect 30 0 25 0;
#X connect 30 0 26 0;
#X connect 30 0 27 0;
#X connect 30 0 28 0;
#X connect 30 0 29 0;
#X connect 31 0 30 0;
#X restore 786 100 pd sampleLoader piano;
#X obj 625 179 r instrument;
#X floatatom 625 203 5 0 0 0 - - - 0;
#X obj 623 230 sel 0 1 2 3 4;
#N canvas 532 143 1311 771 sampleLoader 0;
#X obj 60 225 soundfiler;
#X floatatom 60 251 0 0 0 0 - - - 0;
#X obj 141 254 soundfiler;
#X floatatom 141 280 0 0 0 0 - - - 0;
#X obj 225 285 soundfiler;
#X floatatom 224 315 0 0 0 0 - - - 0;
#X obj 313 318 soundfiler;
#X floatatom 313 344 0 0 0 0 - - - 0;
#X obj 399 355 soundfiler;
#X floatatom 399 381 0 0 0 0 - - - 0;
#X obj 492 388 soundfiler;
#X floatatom 492 414 0 0 0 0 - - - 0;
#X obj 573 417 soundfiler;
#X floatatom 573 443 0 0 0 0 - - - 0;
#X obj 657 448 soundfiler;
#X floatatom 657 474 0 0 0 0 - - - 0;
#X obj 745 481 soundfiler;
#X floatatom 745 507 0 0 0 0 - - - 0;
#X obj 831 518 soundfiler;
#X floatatom 831 544 0 0 0 0 - - - 0;
#X obj 500 63 bng 15 250 50 0 empty empty empty 17 7 0 10 #fcfcfc #000000 #000000;
#X obj 500 20 inlet;
#X msg 61 192 read -resize Audio/vibes/vibe_0.wav sample0;
#X msg 138 221 read -resize Audio/vibes/vibe_1.wav sample1;
#X msg 225 251 read -resize Audio/vibes/vibe_2.wav sample2;
#X msg 314 285 read -resize Audio/vibes/vibe_3.wav sample3;
#X msg 400 321 read -resize Audio/vibes/vibe_4.wav sample4;
#X msg 493 355 read -resize Audio/vibes/vibe_5.wav sample5;
#X msg 574 384 read -resize Audio/vibes/vibe_root.wav sample6;
#X msg 656 414 read -resize Audio/vibes/vibe_third.wav sample7;
#X msg 746 448 read -resize Audio/vibes/vibe_fourth.wav sample8;
#X msg 835 486 read -resize Audio/vibes/vibe_fifth.wav sample9;
#X connect 0 0 1 0;
#X connect 2 0 3 0;
#X connect 4 0 5 0;
#X connect 6 0 7 0;
#X connect 8 0 9 0;
#X connect 10 0 11 0;
#X connect 12 0 13 0;
#X connect 14 0 15 0;
#X connect 16 0 17 0;
#X connect 18 0 19 0;
#X connect 20 0 22 0;
#X connect 20 0 23 0;
#X connect 20 0 24 0;
#X connect 20 0 25 0;
#X connect 20 0 26 0;
#X connect 20 0 27 0;
#X connect 20 0 28 0;
#X connect 20 0 29 0;
#X connect 20 0 30 0;
#X connect 20 0 31 0;
#X connect 21 0 20 0;
#X connect 22 0 0 0;
#X connect 23 0 2 0;
#X connect 24 0 4 0;
#X connect 25 0 6 0;
#X connect 26 0 8 0;
#X connect 27 0 10 0;
#X connect 28 0 12 0;
#X connect 29 0 14 0;
#X connect 30 0 16 0;
#X connect 31 0 18 0;
#X restore 676 357 pd sampleLoader vibes;
#N canvas 586 184 1440 771 sampleLoader 0;
#X obj 60 225 soundfiler;
#X floatatom 60 251 0 0 0 0 - - - 0;
#X obj 141 254 soundfiler;
#X floatatom 141 280 0 0 0 0 - - - 0;
#X obj 225 285 soundfiler;
#X floatatom 224 315 0 0 0 0 - - - 0;
#X obj 313 318 soundfiler;
#X floatatom 313 344 0 0 0 0 - - - 0;
#X obj 399 355 soundfiler;
#X floatatom 399 381 0 0 0 0 - - - 0;
#X obj 492 388 soundfiler;
#X floatatom 492 414 0 0 0 0 - - - 0;
#X obj 573 417 soundfiler;
#X floatatom 573 443 0 0 0 0 - - - 0;
#X obj 657 448 soundfiler;
#X floatatom 657 474 0 0 0 0 - - - 0;
#X obj 745 481 soundfiler;
#X floatatom 745 507 0 0 0 0 - - - 0;
#X obj 831 518 soundfiler;
#X floatatom 831 544 0 0 0 0 - - - 0;
#X obj 500 63 bng 15 250 50 0 empty empty empty 17 7 0 10 #fcfcfc #000000 #000000;
#X obj 500 20 inlet;
#X msg 61 192 read -resize Audio/softPiano/softPiano_0.wav sample0;
#X msg 141 220 read -resize Audio/softPiano/softPiano_1.wav sample1;
#X msg 224 252 read -resize Audio/softPiano/softPiano_2.wav sample2;
#X msg 313 284 read -resize Audio/softPiano/softPiano_3.wav sample3;
#X msg 402 321 read -resize Audio/softPiano/softPiano_4.wav sample4;
#X msg 493 355 read -resize Audio/softPiano/softPiano_5.wav sample5;
#X msg 574 384 read -resize Audio/softPiano/softPiano_root.wav sample6, f 64;
#X msg 657 415 read -resize Audio/softPiano/softPiano_third.wav sample7, f 65;
#X msg 746 448 read -resize Audio/softPiano/softPiano_fourth.wav sample8, f 63;
#X msg 835 486 read -resize Audio/softPiano/softPiano_fifth.wav sample9, f 64;
#X connect 0 0 1 0;
#X connect 2 0 3 0;
#X connect 4 0 5 0;
#X connect 6 0 7 0;
#X connect 8 0 9 0;
#X connect 10 0 11 0;
#X connect 12 0 13 0;
#X connect 14 0 15 0;
#X connect 16 0 17 0;
#X connect 18 0 19 0;
#X connect 20 0 22 0;
#X connect 20 0 23 0;
#X connect 20 0 24 0;
#X connect 20 0 25 0;
#X connect 20 0 26 0;
#X connect 20 0 27 0;
#X connect 20 0 28 0;
#X connect 20 0 29 0;
#X connect 20 0 30 0;
#X connect 20 0 31 0;
#X connect 21 0 20 0;
#X connect 22 0 0 0;
#X connect 23 0 2 0;
#X connect 24 0 4 0;
#X connect 25 0 6 0;
#X connect 26 0 8 0;
#X connect 27 0 10 0;
#X connect 28 0 12 0;
#X connect 29 0 14 0;
#X connect 30 0 16 0;
#X connect 31 0 18 0;
#X restore 637 294 pd sampleLoader softPiano;
#X obj 1188 399 r noteSpread;
#X obj 1104 187 loadbang;
#N canvas 586 184 1440 771 sampleLoader 0;
#X obj 60 225 soundfiler;
#X floatatom 60 251 0 0 0 0 - - - 0;
#X obj 141 254 soundfiler;
#X floatatom 141 280 0 0 0 0 - - - 0;
#X obj 225 285 soundfiler;
#X floatatom 224 315 0 0 0 0 - - - 0;
#X obj 313 318 soundfiler;
#X floatatom 313 344 0 0 0 0 - - - 0;
#X obj 399 355 soundfiler;
#X floatatom 399 381 0 0 0 0 - - - 0;
#X obj 492 388 soundfiler;
#X floatatom 492 414 0 0 0 0 - - - 0;
#X obj 573 417 soundfiler;
#X floatatom 573 443 0 0 0 0 - - - 0;
#X obj 657 448 soundfiler;
#X floatatom 657 474 0 0 0 0 - - - 0;
#X obj 745 481 soundfiler;
#X floatatom 745 507 0 0 0 0 - - - 0;
#X obj 831 518 soundfiler;
#X floatatom 831 544 0 0 0 0 - - - 0;
#X obj 500 63 bng 15 250 50 0 empty empty empty 17 7 0 10 #fcfcfc #000000 #000000;
#X obj 500 20 inlet;
#X msg 59 192 read -resize Audio/ePiano/0.wav sample0;
#X msg 142 221 read -resize Audio/ePiano/1.wav sample1;
#X msg 224 251 read -resize Audio/ePiano/2.wav sample2;
#X msg 314 285 read -resize Audio/ePiano/3.wav sample3;
#X msg 401 321 read -resize Audio/ePiano/4.wav sample4;
#X msg 492 355 read -resize Audio/ePiano/5.wav sample5;
#X msg 574 384 read -resize Audio/ePiano/root.wav sample6;
#X msg 657 415 read -resize Audio/ePiano/third.wav sample7;
#X msg 746 448 read -resize Audio/ePiano/fourth.wav sample8;
#X msg 834 487 read -resize Audio/ePiano/fifth.wav sample9;
#X connect 0 0 1 0;
#X connect 2 0 3 0;
#X connect 4 0 5 0;
#X connect 6 0 7 0;
#X connect 8 0 9 0;
#X connect 10 0 11 0;
#X connect 12 0 13 0;
#X connect 14 0 15 0;
#X connect 16 0 17 0;
#X connect 18 0 19 0;
#X connect 20 0 22 0;
#X connect 20 0 24 0;
#X connect 20 0 25 0;
#X connect 20 0 26 0;
#X connect 20 0 27 0;
#X connect 20 0 28 0;
#X connect 20 0 29 0;
#X connect 20 0 30 0;
#X connect 20 0 31 0;
#X connect 20 0 23 0;
#X connect 21 0 20 0;
#X connect 22 0 0 0;
#X connect 23 0 2 0;
#X connect 24 0 4 0;
#X connect 25 0 6 0;
#X connect 26 0 8 0;
#X connect 27 0 10 0;
#X connect 28 0 12 0;
#X connect 29 0 14 0;
#X connect 30 0 16 0;
#X connect 31 0 18 0;
#X restore 653 326 pd sampleLoader ePiano;
#X msg 896 397 \; noteArray resize 8 \; noteArray 0 1 2 3 4 5 4 3 \;;
#X obj 372 53 r noteSpeed;
#X floatatom 369 141 5 0 0 0 - - - 0;
#X obj 369 164 t b f;
#X obj 250 229 metro 600;
#X floatatom 341 227 5 0 0 0 - - - 0;
#X obj 340 254 print tempo;
#X obj 307 199 * 1, f 14;
#X obj 243 43 t b f;
#X obj 258 103 /;
#X text 198 141 quarter notes;
#X msg 217 73 60000;
#X obj 402 375 sel 0;
#X obj 402 519 s resetLine;
#X obj 521 267 r resetLine;
#X obj 404 448 % 8, f 5;
#X floatatom 404 472 5 0 0 0 - - - 0;
#X obj 402 400 int 1;
#X floatatom 401 424 5 0 0 0 - - - 0;
#X obj 540 420 + 1;
#X obj 539 297 bng 19 250 50 0 empty empty empty 0 -10 0 12 #fcfcfc #000000 #000000;
#X obj 403 495 sel 7;
#X msg 203 17 60;
#N canvas 196 25 1440 771 sampleLoader 0;
#X obj 60 225 soundfiler;
#X floatatom 60 251 0 0 0 0 - - - 0;
#X obj 141 254 soundfiler;
#X floatatom 141 280 0 0 0 0 - - - 0;
#X obj 225 285 soundfiler;
#X floatatom 224 315 0 0 0 0 - - - 0;
#X obj 313 318 soundfiler;
#X floatatom 313 344 0 0 0 0 - - - 0;
#X obj 399 355 soundfiler;
#X floatatom 399 381 0 0 0 0 - - - 0;
#X obj 492 388 soundfiler;
#X floatatom 492 414 0 0 0 0 - - - 0;
#X obj 573 417 soundfiler;
#X floatatom 573 443 0 0 0 0 - - - 0;
#X obj 657 448 soundfiler;
#X floatatom 657 474 0 0 0 0 - - - 0;
#X obj 745 481 soundfiler;
#X floatatom 745 507 0 0 0 0 - - - 0;
#X obj 831 518 soundfiler;
#X floatatom 831 544 0 0 0 0 - - - 0;
#X obj 500 63 bng 15 250 50 0 empty empty empty 17 7 0 10 #fcfcfc #000000 #000000;
#X obj 500 20 inlet;
#X msg 61 192 read -resize Audio/fluteSynth/_0.wav sample0;
#X msg 142 221 read -resize Audio/fluteSynth/_1.wav sample1;
#X msg 223 253 read -resize Audio/fluteSynth/_2.wav sample2;
#X msg 317 284 read -resize Audio/fluteSynth/_3.wav sample3;
#X msg 400 322 read -resize Audio/fluteSynth/_4.wav sample4;
#X msg 492 355 read -resize Audio/fluteSynth/_5.wav sample5;
#X msg 574 384 read -resize Audio/fluteSynth/_root.wav sample6;
#X msg 656 415 read -resize Audio/fluteSynth/_third.wav sample7;
#X msg 746 447 read -resize Audio/fluteSynth/_fourth.wav sample8;
#X msg 836 486 read -resize Audio/fluteSynth/_fifth.wav sample9;
#X connect 0 0 1 0;
#X connect 2 0 3 0;
#X connect 4 0 5 0;
#X connect 6 0 7 0;
#X connect 8 0 9 0;
#X connect 10 0 11 0;
#X connect 12 0 13 0;
#X connect 14 0 15 0;
#X connect 16 0 17 0;
#X connect 18 0 19 0;
#X connect 20 0 22 0;
#X connect 20 0 23 0;
#X connect 20 0 24 0;
#X connect 20 0 25 0;
#X connect 20 0 26 0;
#X connect 20 0 27 0;
#X connect 20 0 29 0;
#X connect 20 0 30 0;
#X connect 20 0 31 0;
#X connect 20 0 28 0;
#X connect 21 0 20 0;
#X connect 22 0 0 0;
#X connect 23 0 2 0;
#X connect 24 0 4 0;
#X connect 25 0 6 0;
#X connect 26 0 8 0;
#X connect 27 0 10 0;
#X connect 28 0 12 0;
#X connect 29 0 14 0;
#X connect 30 0 16 0;
#X connect 31 0 18 0;
#X restore 623 262 pd sampleLoader fluteSynth;
#N canvas 586 184 1440 771 sampleLoader 1;
#X obj 60 225 soundfiler;
#X floatatom 60 251 0 0 0 0 - - - 0;
#X obj 141 254 soundfiler;
#X floatatom 141 280 0 0 0 0 - - - 0;
#X obj 225 285 soundfiler;
#X floatatom 224 315 0 0 0 0 - - - 0;
#X obj 313 318 soundfiler;
#X floatatom 313 344 0 0 0 0 - - - 0;
#X obj 399 355 soundfiler;
#X floatatom 399 381 0 0 0 0 - - - 0;
#X obj 492 388 soundfiler;
#X floatatom 492 414 0 0 0 0 - - - 0;
#X obj 573 417 soundfiler;
#X floatatom 573 443 0 0 0 0 - - - 0;
#X obj 657 448 soundfiler;
#X floatatom 657 474 0 0 0 0 - - - 0;
#X obj 745 481 soundfiler;
#X floatatom 745 507 0 0 0 0 - - - 0;
#X obj 831 518 soundfiler;
#X floatatom 831 544 0 0 0 0 - - - 0;
#X obj 500 63 bng 15 250 50 0 empty empty empty 17 7 0 10 #fcfcfc #000000 #000000;
#X obj 500 20 inlet;
#X msg 59 193 read -resize Audio/brightSynth/_0.wav sample0;
#X msg 142 221 read -resize Audio/brightSynth/_1.wav sample1;
#X msg 243 252 read -resize Audio/brightSynth/_2.wav sample2;
#X msg 318 286 read -resize Audio/brightSynth/_3.wav sample3;
#X msg 401 321 read -resize Audio/brightSynth/_4.wav sample4;
#X msg 492 355 read -resize Audio/brightSynth/_5.wav sample5;
#X msg 575 384 read -resize Audio/brightSynth/_root.wav sample6;
#X msg 657 415 read -resize Audio/brightSynth/_third.wav sample7;
#X msg 746 448 read -resize Audio/brightSynth/_fourth.wav sample8;
#X msg 835 486 read -resize Audio/brightSynth/_fifth.wav sample9;
#X connect 0 0 1 0;
#X connect 2 0 3 0;
#X connect 4 0 5 0;
#X connect 6 0 7 0;
#X connect 8 0 9 0;
#X connect 10 0 11 0;
#X connect 12 0 13 0;
#X connect 14 0 15 0;
#X connect 16 0 17 0;
#X connect 18 0 19 0;
#X connect 20 0 22 0;
#X connect 20 0 23 0;
#X connect 20 0 24 0;
#X connect 20 0 25 0;
#X connect 20 0 26 0;
#X connect 20 0 27 0;
#X connect 20 0 28 0;
#X connect 20 0 29 0;
#X connect 20 0 30 0;
#X connect 20 0 31 0;
#X connect 21 0 20 0;
#X connect 22 0 0 0;
#X connect 23 0 2 0;
#X connect 24 0 4 0;
#X connect 25 0 6 0;
#X connect 26 0 8 0;
#X connect 27 0 10 0;
#X connect 28 0 12 0;
#X connect 29 0 14 0;
#X connect 30 0 16 0;
#X connect 31 0 18 0;
#X restore 695 388 pd sampleLoader brightSynth;
#X obj 35 244 print PDSTART;
#X obj 270 165 print TEMPO;
#X connect 0 0 73 0;
#X connect 0 0 92 0;
#X connect 1 0 3 0;
#X connect 2 0 6 0;
#X connect 2 0 70 0;
#X connect 3 0 4 0;
#X connect 3 0 10 0;
#X connect 4 0 28 0;
#X connect 5 0 38 0;
#X connect 5 0 78 0;
#X connect 6 0 8 0;
#X connect 7 0 14 0;
#X connect 8 0 9 0;
#X connect 9 0 3 0;
#X connect 10 0 3 1;
#X connect 12 0 11 0;
#X connect 12 0 11 1;
#X connect 13 0 26 0;
#X connect 13 0 28 1;
#X connect 14 0 91 0;
#X connect 14 0 8 0;
#X connect 14 0 2 0;
#X connect 14 0 88 0;
#X connect 15 0 12 0;
#X connect 16 0 12 0;
#X connect 17 0 12 0;
#X connect 18 0 12 0;
#X connect 19 0 12 0;
#X connect 20 0 12 0;
#X connect 21 0 12 0;
#X connect 22 0 12 0;
#X connect 23 0 12 0;
#X connect 24 0 12 0;
#X connect 25 0 14 0;
#X connect 27 0 74 0;
#X connect 28 0 5 0;
#X connect 29 0 30 0;
#X connect 29 0 59 0;
#X connect 30 0 13 0;
#X connect 31 0 13 0;
#X connect 35 0 37 0;
#X connect 35 0 52 0;
#X connect 36 0 42 0;
#X connect 38 0 39 0;
#X connect 39 0 41 0;
#X connect 40 0 36 0;
#X connect 41 1 15 0;
#X connect 41 2 16 0;
#X connect 41 3 17 0;
#X connect 41 4 18 0;
#X connect 41 5 19 0;
#X connect 41 6 20 0;
#X connect 41 7 21 0;
#X connect 41 8 22 0;
#X connect 41 9 23 0;
#X connect 41 10 24 0;
#X connect 42 0 33 0;
#X connect 43 0 40 1;
#X connect 44 0 54 1;
#X connect 45 0 46 0;
#X connect 45 0 47 0;
#X connect 46 0 33 1;
#X connect 46 0 56 0;
#X connect 47 0 45 1;
#X connect 48 0 54 0;
#X connect 49 0 56 0;
#X connect 49 1 51 0;
#X connect 50 0 44 0;
#X connect 51 0 56 1;
#X connect 52 1 53 0;
#X connect 52 2 49 0;
#X connect 53 0 45 0;
#X connect 53 0 56 0;
#X connect 54 0 40 0;
#X connect 54 0 45 0;
#X connect 55 0 48 0;
#X connect 56 0 50 0;
#X connect 58 0 59 0;
#X connect 59 0 60 0;
#X connect 60 0 89 0;
#X connect 60 1 62 0;
#X connect 60 2 65 0;
#X connect 60 3 61 0;
#X connect 60 4 90 0;
#X connect 63 0 43 0;
#X connect 64 0 55 0;
#X connect 67 0 68 0;
#X connect 68 0 69 0;
#X connect 69 0 73 0;
#X connect 69 1 73 1;
#X connect 70 0 1 0;
#X connect 71 0 72 0;
#X connect 73 0 70 1;
#X connect 73 0 71 0;
#X connect 74 0 77 0;
#X connect 74 1 75 1;
#X connect 75 0 0 0;
#X connect 77 0 75 0;
#X connect 78 0 83 0;
#X connect 80 0 13 0;
#X connect 80 0 86 0;
#X connect 81 0 82 0;
#X connect 82 0 87 0;
#X connect 83 0 84 0;
#X connect 83 0 85 0;
#X connect 84 0 81 0;
#X connect 85 0 83 1;
#X connect 87 0 79 0;
#X connect 88 0 74 0;
