#N canvas 51 115 1476 847 12;
#X floatatom 303 64 5 0 0 0 - - - 0;
#X obj 245 179 bng 15 250 50 0 empty empty empty 17 7 0 10 #fcfcfc #000000 #000000;
#X obj 245 120 tgl 15 0 empty empty empty 17 7 0 10 #fcfcfc #000000 #000000 0 1;
#X obj 245 219 int 1;
#X floatatom 244 243 5 0 0 0 - - - 0;
#X floatatom 245 292 5 0 0 0 - - - 0;
#X obj 190 149 sel 0;
#X obj 23 10 loadbang;
#X obj 190 174 bng 15 250 50 0 empty empty empty 17 7 0 10 #fcfcfc #000000 #000000;
#X obj 190 193 - 1;
#X obj 383 239 + 1;
#X obj 300 657 dac~;
#X obj 313 600 *~ 0.75;
#X floatatom 454 221 5 0 0 0 - - - 0;
#X obj 23 332 bng 19 250 50 0 empty empty empty 0 -10 0 12 #fcfcfc #000000 #000000;
#X obj 95 420 tabplay~ sample0;
#X obj 163 446 tabplay~ sample1;
#X obj 235 473 tabplay~ sample2;
#X obj 305 421 tabplay~ sample3;
#X obj 375 450 tabplay~ sample4;
#X obj 449 480 tabplay~ sample5;
#X obj 514 427 tabplay~ sample6;
#X obj 585 457 tabplay~ sample7;
#X obj 656 485 tabplay~ sample8;
#X obj 729 515 tabplay~ sample9;
#X obj 45 296 receive start;
#X obj 481 266 s beats;
#X obj 302 35 r tempo;
#X obj 245 266 % 32, f 31;
#X obj 450 161 loadbang;
#X msg 451 192 32;
#X obj 519 161 r length;
#N canvas 0 25 504 455 samples 0;
#N canvas 0 0 450 300 (subpatch) 0;
#X array sample0 176400 float 0;
#X coords 0 1 176399 -1 250 5 1 0 0;
#X restore 89 60 graph;
#N canvas 0 0 450 300 (subpatch) 0;
#X array sample1 176400 float 0;
#X coords 0 1 176399 -1 250 5 1 0 0;
#X restore 88 90 graph;
#N canvas 0 0 450 300 (subpatch) 0;
#X array sample2 176400 float 0;
#X coords 0 1 176399 -1 250 5 1 0 0;
#X restore 90 123 graph;
#N canvas 0 0 450 300 (subpatch) 0;
#X array sample3 176400 float 0;
#X coords 0 1 176399 -1 250 5 1 0 0;
#X restore 89 153 graph;
#N canvas 0 0 450 300 (subpatch) 0;
#X array sample4 176400 float 0;
#X coords 0 1 176399 -1 250 5 1 0 0;
#X restore 89 184 graph;
#N canvas 0 0 450 300 (subpatch) 0;
#X array sample5 176400 float 0;
#X coords 0 1 176399 -1 250 5 1 0 0;
#X restore 88 214 graph;
#N canvas 0 0 450 300 (subpatch) 0;
#X array sample6 176400 float 0;
#X coords 0 1 176399 -1 250 5 1 0 0;
#X restore 90 247 graph;
#N canvas 0 0 450 300 (subpatch) 0;
#X array sample7 176400 float 0;
#X coords 0 1 176399 -1 250 5 1 0 0;
#X restore 89 277 graph;
#N canvas 0 0 450 300 (subpatch) 0;
#X array sample9 176400 float 0;
#X coords 0 1 176399 -1 250 5 1 0 0;
#X restore 99 347 graph;
#N canvas 0 0 450 300 (subpatch) 0;
#X array sample8 176400 float 0;
#X coords 0 1 176399 -1 250 5 1 0 0;
#X restore 96 307 graph;
#X restore 612 351 pd samples;
#X obj 1134 452 tabwrite noteArray;
#N canvas 0 22 450 278 (subpatch) 0;
#X array noteArray 8 float 2;
#X coords 0 10 8 0 250 200 1;
#X restore 1068 535 graph;
#X obj 1172 116 r beats;
#X floatatom 1135 395 5 0 0 0 - - - 0;
#X msg 1014 144 \; noteArray resize \$1 \;;
#X obj 245 318 tabread noteArray;
#X floatatom 245 342 5 0 0 0 - - - 0;
#X obj 1135 371 random 10;
#X obj 24 385 sel 0 1 2 3 4 5 6 7 8 9 10, f 111;
#X obj 1135 423 change;
#X floatatom 1183 344 5 0 0 0 - - - 0;
#X obj 1172 197 tgl 19 0 empty empty empty 0 -10 0 12 #fcfcfc #000000 #000000 0 1;
#X obj 1255 273 int 1;
#X floatatom 1254 297 5 0 0 0 - - - 0;
#X obj 1349 277 + 1;
#X obj 1101 227 metro 150;
#X obj 1309 312 t b f;
#X obj 1294 423 tgl 19 0 empty empty empty 0 -10 0 12 #fcfcfc #000000 #000000 0 1;
#X obj 1341 345 - 1;
#X obj 1171 145 t b b \$1, f 18;
#X floatatom 1254 246 5 0 0 0 - - - 0;
#X obj 1137 255 spigot;
#X obj 1100 190 tgl 19 0 empty empty empty 0 -10 0 12 #fcfcfc #000000 #000000 0 1;
#X obj 1294 392 < 16;
#N canvas 0 25 1440 771 sampleLoader 0;
#X obj 60 225 soundfiler;
#X floatatom 60 251 0 0 0 0 - - - 0;
#X msg 61 192 read -resize ../../Audio/piano/piano_0.aif sample0;
#X obj 141 254 soundfiler;
#X floatatom 141 280 0 0 0 0 - - - 0;
#X obj 225 285 soundfiler;
#X floatatom 224 315 0 0 0 0 - - - 0;
#X obj 313 318 soundfiler;
#X floatatom 313 344 0 0 0 0 - - - 0;
#X obj 399 355 soundfiler;
#X floatatom 399 381 0 0 0 0 - - - 0;
#X obj 492 388 soundfiler;
#X floatatom 492 414 0 0 0 0 - - - 0;
#X obj 573 417 soundfiler;
#X floatatom 573 443 0 0 0 0 - - - 0;
#X obj 657 448 soundfiler;
#X floatatom 657 474 0 0 0 0 - - - 0;
#X obj 745 481 soundfiler;
#X floatatom 745 507 0 0 0 0 - - - 0;
#X obj 831 518 soundfiler;
#X floatatom 831 544 0 0 0 0 - - - 0;
#X msg 142 221 read -resize ../../Audio/piano/piano_1.aif sample1;
#X msg 224 252 read -resize ../../Audio/piano/piano_2.aif sample2;
#X msg 314 285 read -resize ../../Audio/piano/piano_3.aif sample3;
#X msg 400 322 read -resize ../../Audio/piano/piano_4.aif sample4;
#X msg 493 355 read -resize ../../Audio/piano/piano_5.aif sample5;
#X msg 574 384 read -resize ../../Audio/piano/piano_root.aif sample6;
#X msg 657 415 read -resize ../../Audio/piano/piano_third.aif sample7;
#X msg 746 448 read -resize ../../Audio/piano/piano_fourth.aif sample8;
#X msg 835 486 read -resize ../../Audio/piano/piano_fifth.aif sample9;
#X obj 500 63 bng 15 250 50 0 empty empty empty 17 7 0 10 #fcfcfc #000000 #000000;
#X obj 500 20 inlet;
#X connect 0 0 1 0;
#X connect 2 0 0 0;
#X connect 3 0 4 0;
#X connect 5 0 6 0;
#X connect 7 0 8 0;
#X connect 9 0 10 0;
#X connect 11 0 12 0;
#X connect 13 0 14 0;
#X connect 15 0 16 0;
#X connect 17 0 18 0;
#X connect 19 0 20 0;
#X connect 21 0 3 0;
#X connect 22 0 5 0;
#X connect 23 0 7 0;
#X connect 24 0 9 0;
#X connect 25 0 11 0;
#X connect 26 0 13 0;
#X connect 27 0 15 0;
#X connect 28 0 17 0;
#X connect 29 0 19 0;
#X connect 30 0 2 0;
#X connect 30 0 21 0;
#X connect 30 0 22 0;
#X connect 30 0 23 0;
#X connect 30 0 24 0;
#X connect 30 0 25 0;
#X connect 30 0 26 0;
#X connect 30 0 27 0;
#X connect 30 0 28 0;
#X connect 30 0 29 0;
#X connect 31 0 30 0;
#X restore 618 188 pd sampleLoader piano;
#X obj 620 100 r instrument;
#X floatatom 620 124 5 0 0 0 - - - 0;
#X obj 618 151 sel 0 1 2 3 4;
#N canvas 47 25 1311 771 sampleLoader 0;
#X obj 60 225 soundfiler;
#X floatatom 60 251 0 0 0 0 - - - 0;
#X obj 141 254 soundfiler;
#X floatatom 141 280 0 0 0 0 - - - 0;
#X obj 225 285 soundfiler;
#X floatatom 224 315 0 0 0 0 - - - 0;
#X obj 313 318 soundfiler;
#X floatatom 313 344 0 0 0 0 - - - 0;
#X obj 399 355 soundfiler;
#X floatatom 399 381 0 0 0 0 - - - 0;
#X obj 492 388 soundfiler;
#X floatatom 492 414 0 0 0 0 - - - 0;
#X obj 573 417 soundfiler;
#X floatatom 573 443 0 0 0 0 - - - 0;
#X obj 657 448 soundfiler;
#X floatatom 657 474 0 0 0 0 - - - 0;
#X obj 745 481 soundfiler;
#X floatatom 745 507 0 0 0 0 - - - 0;
#X obj 831 518 soundfiler;
#X floatatom 831 544 0 0 0 0 - - - 0;
#X obj 500 63 bng 15 250 50 0 empty empty empty 17 7 0 10 #fcfcfc #000000 #000000;
#X obj 500 20 inlet;
#X msg 61 192 read -resize ../../Audio/vibes/vibe_0.wav sample0;
#X msg 141 221 read -resize ../../Audio/vibes/vibe_1.wav sample1;
#X msg 224 252 read -resize ../../Audio/vibes/vibe_2.wav sample2;
#X msg 314 285 read -resize ../../Audio/vibes/vibe_3.wav sample3;
#X msg 400 322 read -resize ../../Audio/vibes/vibe_4.wav sample4;
#X msg 493 355 read -resize ../../Audio/vibes/vibe_5.wav sample5;
#X msg 574 384 read -resize ../../Audio/vibes/vibe_root.wav sample6;
#X msg 657 415 read -resize ../../Audio/vibes/vibe_third.wav sample7;
#X msg 746 448 read -resize ../../Audio/vibes/vibe_fourth.wav sample8;
#X msg 835 486 read -resize ../../Audio/vibes/vibe_fifth.wav sample9;
#X connect 0 0 1 0;
#X connect 2 0 3 0;
#X connect 4 0 5 0;
#X connect 6 0 7 0;
#X connect 8 0 9 0;
#X connect 10 0 11 0;
#X connect 12 0 13 0;
#X connect 14 0 15 0;
#X connect 16 0 17 0;
#X connect 18 0 19 0;
#X connect 20 0 22 0;
#X connect 20 0 23 0;
#X connect 20 0 24 0;
#X connect 20 0 25 0;
#X connect 20 0 26 0;
#X connect 20 0 27 0;
#X connect 20 0 28 0;
#X connect 20 0 29 0;
#X connect 20 0 30 0;
#X connect 20 0 31 0;
#X connect 21 0 20 0;
#X connect 22 0 0 0;
#X connect 23 0 2 0;
#X connect 24 0 4 0;
#X connect 25 0 6 0;
#X connect 26 0 8 0;
#X connect 27 0 10 0;
#X connect 28 0 12 0;
#X connect 29 0 14 0;
#X connect 30 0 16 0;
#X connect 31 0 18 0;
#X restore 673 310 pd sampleLoader vibes;
#N canvas 586 184 1440 771 sampleLoader 0;
#X obj 60 225 soundfiler;
#X floatatom 60 251 0 0 0 0 - - - 0;
#X obj 141 254 soundfiler;
#X floatatom 141 280 0 0 0 0 - - - 0;
#X obj 225 285 soundfiler;
#X floatatom 224 315 0 0 0 0 - - - 0;
#X obj 313 318 soundfiler;
#X floatatom 313 344 0 0 0 0 - - - 0;
#X obj 399 355 soundfiler;
#X floatatom 399 381 0 0 0 0 - - - 0;
#X obj 492 388 soundfiler;
#X floatatom 492 414 0 0 0 0 - - - 0;
#X obj 573 417 soundfiler;
#X floatatom 573 443 0 0 0 0 - - - 0;
#X obj 657 448 soundfiler;
#X floatatom 657 474 0 0 0 0 - - - 0;
#X obj 745 481 soundfiler;
#X floatatom 745 507 0 0 0 0 - - - 0;
#X obj 831 518 soundfiler;
#X floatatom 831 544 0 0 0 0 - - - 0;
#X obj 500 63 bng 15 250 50 0 empty empty empty 17 7 0 10 #fcfcfc #000000 #000000;
#X obj 500 20 inlet;
#X msg 61 192 read -resize ../../Audio/softPiano/0.aif sample0;
#X msg 142 221 read -resize ../../Audio/softPiano/1.aif sample1;
#X msg 224 252 read -resize ../../Audio/softPiano/2.aif sample2;
#X msg 314 285 read -resize ../../Audio/softPiano/3.aif sample3;
#X msg 400 322 read -resize ../../Audio/softPiano/4.aif sample4;
#X msg 493 355 read -resize ../../Audio/softPiano/5.aif sample5;
#X msg 574 384 read -resize ../../Audio/softPiano/root.aif sample6;
#X msg 657 415 read -resize ../../Audio/softPiano/third.aif sample7;
#X msg 746 448 read -resize ../../Audio/softPiano/fourth.aif sample8;
#X msg 835 486 read -resize ../../Audio/softPiano/fifth.aif sample9;
#X connect 0 0 1 0;
#X connect 2 0 3 0;
#X connect 4 0 5 0;
#X connect 6 0 7 0;
#X connect 8 0 9 0;
#X connect 10 0 11 0;
#X connect 12 0 13 0;
#X connect 14 0 15 0;
#X connect 16 0 17 0;
#X connect 18 0 19 0;
#X connect 20 0 22 0;
#X connect 20 0 23 0;
#X connect 20 0 24 0;
#X connect 20 0 25 0;
#X connect 20 0 26 0;
#X connect 20 0 27 0;
#X connect 20 0 28 0;
#X connect 20 0 29 0;
#X connect 20 0 30 0;
#X connect 20 0 31 0;
#X connect 21 0 20 0;
#X connect 22 0 0 0;
#X connect 23 0 2 0;
#X connect 24 0 4 0;
#X connect 25 0 6 0;
#X connect 26 0 8 0;
#X connect 27 0 10 0;
#X connect 28 0 12 0;
#X connect 29 0 14 0;
#X connect 30 0 16 0;
#X connect 31 0 18 0;
#X restore 632 215 pd sampleLoader softPiano;
#X obj 1183 320 r noteSpread;
#X obj 1099 108 loadbang;
#N canvas 586 184 1440 771 sampleLoader 0;
#X obj 60 225 soundfiler;
#X floatatom 60 251 0 0 0 0 - - - 0;
#X obj 141 254 soundfiler;
#X floatatom 141 280 0 0 0 0 - - - 0;
#X obj 225 285 soundfiler;
#X floatatom 224 315 0 0 0 0 - - - 0;
#X obj 313 318 soundfiler;
#X floatatom 313 344 0 0 0 0 - - - 0;
#X obj 399 355 soundfiler;
#X floatatom 399 381 0 0 0 0 - - - 0;
#X obj 492 388 soundfiler;
#X floatatom 492 414 0 0 0 0 - - - 0;
#X obj 573 417 soundfiler;
#X floatatom 573 443 0 0 0 0 - - - 0;
#X obj 657 448 soundfiler;
#X floatatom 657 474 0 0 0 0 - - - 0;
#X obj 745 481 soundfiler;
#X floatatom 745 507 0 0 0 0 - - - 0;
#X obj 831 518 soundfiler;
#X floatatom 831 544 0 0 0 0 - - - 0;
#X obj 500 63 bng 15 250 50 0 empty empty empty 17 7 0 10 #fcfcfc #000000 #000000;
#X obj 500 20 inlet;
#X msg 835 486 read -resize ../../Audio/ePiano/fifth.wav sample9;
#X msg 746 448 read -resize ../../Audio/ePiano/fourth.wav sample8;
#X msg 657 415 read -resize ../../Audio/ePiano/third.wav sample7;
#X msg 574 384 read -resize ../../Audio/ePiano/root.wav sample6;
#X msg 493 355 read -resize ../../Audio/ePiano/5.wav sample5;
#X msg 401 321 read -resize ../../Audio/ePiano/4.wav sample4;
#X msg 314 285 read -resize ../../Audio/ePiano/3.wav sample3;
#X msg 224 251 read -resize ../../Audio/ePiano/2.wav sample2;
#X msg 142 221 read -resize ../../Audio/ePiano/1.wav sample1;
#X msg 59 192 read -resize ../../Audio/ePiano/0.wav sample0;
#X connect 0 0 1 0;
#X connect 2 0 3 0;
#X connect 4 0 5 0;
#X connect 6 0 7 0;
#X connect 8 0 9 0;
#X connect 10 0 11 0;
#X connect 12 0 13 0;
#X connect 14 0 15 0;
#X connect 16 0 17 0;
#X connect 18 0 19 0;
#X connect 20 0 31 0;
#X connect 20 0 30 0;
#X connect 20 0 29 0;
#X connect 20 0 28 0;
#X connect 20 0 27 0;
#X connect 20 0 26 0;
#X connect 20 0 25 0;
#X connect 20 0 24 0;
#X connect 20 0 23 0;
#X connect 20 0 22 0;
#X connect 21 0 20 0;
#X connect 22 0 18 0;
#X connect 23 0 16 0;
#X connect 24 0 14 0;
#X connect 25 0 12 0;
#X connect 26 0 10 0;
#X connect 27 0 8 0;
#X connect 28 0 6 0;
#X connect 29 0 4 0;
#X connect 30 0 2 0;
#X connect 31 0 0 0;
#X restore 648 247 pd sampleLoader ePiano;
#N canvas 586 184 1440 771 sampleLoader 0;
#X obj 60 225 soundfiler;
#X floatatom 60 251 0 0 0 0 - - - 0;
#X obj 141 254 soundfiler;
#X floatatom 141 280 0 0 0 0 - - - 0;
#X obj 225 285 soundfiler;
#X floatatom 224 315 0 0 0 0 - - - 0;
#X obj 313 318 soundfiler;
#X floatatom 313 344 0 0 0 0 - - - 0;
#X obj 399 355 soundfiler;
#X floatatom 399 381 0 0 0 0 - - - 0;
#X obj 492 388 soundfiler;
#X floatatom 492 414 0 0 0 0 - - - 0;
#X obj 573 417 soundfiler;
#X floatatom 573 443 0 0 0 0 - - - 0;
#X obj 657 448 soundfiler;
#X floatatom 657 474 0 0 0 0 - - - 0;
#X obj 745 481 soundfiler;
#X floatatom 745 507 0 0 0 0 - - - 0;
#X obj 831 518 soundfiler;
#X floatatom 831 544 0 0 0 0 - - - 0;
#X obj 500 63 bng 15 250 50 0 empty empty empty 17 7 0 10 #fcfcfc #000000 #000000;
#X obj 500 20 inlet;
#X msg 59 192 read -resize ../../Audio/juno/0.wav sample0;
#X msg 142 221 read -resize ../../Audio/juno/1.wav sample1;
#X msg 224 251 read -resize ../../Audio/juno/2.wav sample2;
#X msg 317 286 read -resize ../../Audio/juno/3.wav sample3;
#X msg 401 321 read -resize ../../Audio/juno/4.wav sample4;
#X msg 492 355 read -resize ../../Audio/juno/5.wav sample5;
#X msg 575 384 read -resize ../../Audio/juno/root.wav sample6;
#X msg 657 415 read -resize ../../Audio/juno/third.wav sample7;
#X msg 746 448 read -resize ../../Audio/juno/fourth.wav sample8;
#X msg 835 486 read -resize ../../Audio/juno/fifth.wav sample9;
#X connect 0 0 1 0;
#X connect 2 0 3 0;
#X connect 4 0 5 0;
#X connect 6 0 7 0;
#X connect 8 0 9 0;
#X connect 10 0 11 0;
#X connect 12 0 13 0;
#X connect 14 0 15 0;
#X connect 16 0 17 0;
#X connect 18 0 19 0;
#X connect 20 0 22 0;
#X connect 20 0 23 0;
#X connect 20 0 24 0;
#X connect 20 0 25 0;
#X connect 20 0 26 0;
#X connect 20 0 27 0;
#X connect 20 0 28 0;
#X connect 20 0 29 0;
#X connect 20 0 30 0;
#X connect 20 0 31 0;
#X connect 21 0 20 0;
#X connect 22 0 0 0;
#X connect 23 0 2 0;
#X connect 24 0 4 0;
#X connect 25 0 6 0;
#X connect 26 0 8 0;
#X connect 27 0 10 0;
#X connect 28 0 12 0;
#X connect 29 0 14 0;
#X connect 30 0 16 0;
#X connect 31 0 18 0;
#X restore 681 278 pd sampleLoader juno;
#X msg 891 318 \; noteArray resize 8 \; noteArray 0 1 2 3 4 5 4 3 \;;
#X obj 364 38 r noteSpeed;
#X floatatom 364 62 5 0 0 0 - - - 0;
#X obj 364 85 t b f;
#X obj 245 150 metro 600;
#X floatatom 336 148 5 0 0 0 - - - 0;
#X obj 335 175 print tempo;
#X obj 302 120 * 1, f 14;
#X msg 264 63 300;
#X connect 0 0 74 0;
#X connect 1 0 3 0;
#X connect 2 0 6 0;
#X connect 2 0 71 0;
#X connect 3 0 4 0;
#X connect 3 0 10 0;
#X connect 4 0 28 0;
#X connect 5 0 38 0;
#X connect 6 0 8 0;
#X connect 7 0 8 0;
#X connect 7 0 2 0;
#X connect 7 0 14 0;
#X connect 7 0 75 0;
#X connect 8 0 9 0;
#X connect 9 0 3 0;
#X connect 10 0 3 1;
#X connect 12 0 11 0;
#X connect 12 0 11 1;
#X connect 13 0 26 0;
#X connect 13 0 28 1;
#X connect 15 0 12 0;
#X connect 16 0 12 0;
#X connect 17 0 12 0;
#X connect 18 0 12 0;
#X connect 19 0 12 0;
#X connect 20 0 12 0;
#X connect 21 0 12 0;
#X connect 22 0 12 0;
#X connect 23 0 12 0;
#X connect 24 0 12 0;
#X connect 25 0 14 0;
#X connect 27 0 0 0;
#X connect 28 0 5 0;
#X connect 29 0 30 0;
#X connect 29 0 59 0;
#X connect 30 0 13 0;
#X connect 31 0 13 0;
#X connect 35 0 37 0;
#X connect 35 0 52 0;
#X connect 36 0 42 0;
#X connect 38 0 39 0;
#X connect 39 0 41 0;
#X connect 40 0 36 0;
#X connect 41 1 15 0;
#X connect 41 2 16 0;
#X connect 41 3 17 0;
#X connect 41 4 18 0;
#X connect 41 5 19 0;
#X connect 41 6 20 0;
#X connect 41 7 21 0;
#X connect 41 8 22 0;
#X connect 41 9 23 0;
#X connect 41 10 24 0;
#X connect 42 0 33 0;
#X connect 43 0 40 1;
#X connect 44 0 54 1;
#X connect 45 0 46 0;
#X connect 45 0 47 0;
#X connect 46 0 33 1;
#X connect 46 0 56 0;
#X connect 47 0 45 1;
#X connect 48 0 54 0;
#X connect 49 0 56 0;
#X connect 49 1 51 0;
#X connect 50 0 44 0;
#X connect 51 0 56 1;
#X connect 52 1 53 0;
#X connect 52 2 49 0;
#X connect 53 0 45 0;
#X connect 53 0 56 0;
#X connect 54 0 40 0;
#X connect 54 0 45 0;
#X connect 55 0 48 0;
#X connect 56 0 50 0;
#X connect 58 0 59 0;
#X connect 59 0 60 0;
#X connect 60 0 57 0;
#X connect 60 1 62 0;
#X connect 60 2 65 0;
#X connect 60 3 61 0;
#X connect 60 4 66 0;
#X connect 63 0 43 0;
#X connect 64 0 55 0;
#X connect 68 0 69 0;
#X connect 69 0 70 0;
#X connect 70 0 74 0;
#X connect 70 1 74 1;
#X connect 71 0 1 0;
#X connect 72 0 73 0;
#X connect 74 0 71 1;
#X connect 74 0 72 0;
#X connect 75 0 0 0;
