#N canvas 594 289 1646 782 12;
#X obj 403 616 dac~;
#X obj 410 572 *~ 0.75;
#X obj 62 124 tabplay~ nature;
#X obj 186 126 tabplay~ natureEffected;
#N canvas 0 25 450 300 (subpatch) 0;
#X array nature 3.74804e+07 float 0;
#X coords 0 1 3.74804e+07 -1 250 5 1 0 0;
#X restore 770 146 graph;
#X obj 678 135 soundfiler;
#X floatatom 678 161 0 0 0 0 - - - 0;
#N canvas 0 25 742 544 (subpatch) 0;
#X array natureEffected 1.55126e+07 float 0;
#X coords 0 1 1.55126e+07 -1 250 5 1 0 0;
#X restore 771 278 graph;
#X obj 680 266 soundfiler;
#X floatatom 680 292 0 0 0 0 - - - 0;
#X obj 153 498 +~;
#X obj 57 443 *~;
#X obj 208 442 *~;
#X obj 415 527 +~;
#X floatatom 81 418 5 0 0 0 - - - 0;
#X floatatom 226 416 5 0 0 0 - - - 0;
#X obj 466 499 +~;
#X obj 334 437 *~;
#X obj 496 443 *~;
#X floatatom 376 415 5 0 0 0 - - - 0;
#X floatatom 515 416 5 0 0 0 - - - 0;
#X obj 310 81 bng 19 250 50 0 empty empty empty 0 -10 0 12 #fcfcfc #000000 #000000;
#X obj 375 125 tabplay~ office;
#X obj 499 127 tabplay~ officeEffected;
#N canvas 0 25 450 300 (subpatch) 0;
#X array office 2.63151e+07 float 0;
#X coords 0 1 2.63151e+07 -1 250 5 1 0 0;
#X restore 769 382 graph;
#X obj 677 371 soundfiler;
#X floatatom 677 397 0 0 0 0 - - - 0;
#N canvas 0 25 742 544 (subpatch) 0;
#X array officeEffected 1.12871e+07 float 0;
#X coords 0 1 1.12871e+07 -1 250 5 1 0 0;
#X restore 770 514 graph;
#X obj 679 502 soundfiler;
#X floatatom 679 528 0 0 0 0 - - - 0;
#X obj 308 37 loadbang;
#X obj 815 53 loadbang;
#X obj 81 386 unpack float float float float, f 63;
#X obj 87 243 sel 0 1 2 3 4, f 64;
#X msg 85 284 1 0.25 0 0.0125;
#X msg 166 311 0.75 0.75 0 0.125;
#X msg 259 345 0.5 1 0.125 0.25;
#X msg 351 278 0.25 0.75 0.25 0.5;
#X msg 435 308 0 1 0.25 0.75;
#X msg 681 233 read -resize Audio/sfx/natureEffected.wav natureEffected, f 63;
#X msg 678 338 read -resize Audio/sfx/office.wav office;
#X msg 680 469 read -resize Audio/sfx/officeEffected.wav officeEffected, f 63;
#X msg 679 102 read -resize Audio/sfx/nature.wav nature;
#X obj 402 61 print playingSFX;
#X obj 135 187 print levelsSet;
#X floatatom 93 205 5 0 0 0 - - - 0;
#X obj 92 153 receive levels;
#X obj 420 30 receive sfx_Play;
#X connect 1 0 0 0;
#X connect 1 0 0 1;
#X connect 2 0 11 0;
#X connect 3 0 12 0;
#X connect 5 0 6 0;
#X connect 8 0 9 0;
#X connect 10 0 13 0;
#X connect 11 0 10 0;
#X connect 12 0 10 1;
#X connect 13 0 1 0;
#X connect 14 0 11 1;
#X connect 15 0 12 1;
#X connect 16 0 13 1;
#X connect 17 0 16 0;
#X connect 18 0 16 1;
#X connect 19 0 17 1;
#X connect 20 0 18 1;
#X connect 21 0 2 0;
#X connect 21 0 3 0;
#X connect 21 0 22 0;
#X connect 21 0 23 0;
#X connect 22 0 17 0;
#X connect 23 0 18 0;
#X connect 25 0 26 0;
#X connect 28 0 29 0;
#X connect 30 0 21 0;
#X connect 30 0 45 0;
#X connect 31 0 42 0;
#X connect 31 0 39 0;
#X connect 31 0 40 0;
#X connect 31 0 41 0;
#X connect 32 0 14 0;
#X connect 32 1 15 0;
#X connect 32 2 19 0;
#X connect 32 3 20 0;
#X connect 33 0 34 0;
#X connect 33 1 35 0;
#X connect 33 2 36 0;
#X connect 33 3 37 0;
#X connect 33 4 38 0;
#X connect 34 0 32 0;
#X connect 35 0 32 0;
#X connect 36 0 32 0;
#X connect 37 0 32 0;
#X connect 38 0 32 0;
#X connect 39 0 8 0;
#X connect 40 0 25 0;
#X connect 41 0 28 0;
#X connect 42 0 5 0;
#X connect 45 0 33 0;
#X connect 46 0 44 0;
#X connect 46 0 45 0;
#X connect 47 0 21 0;
#X connect 47 0 43 0;
